<svg width="20" height="20" viewBox="0 0 20 20" fill="none" xmlns="http://www.w3.org/2000/svg">
<path fill-rule="evenodd" clip-rule="evenodd" d="M9.99935 3.3335C10.4596 3.3335 10.8327 3.70659 10.8327 4.16683V15.8335C10.8327 16.2937 10.4596 16.6668 9.99935 16.6668C9.53911 16.6668 9.16602 16.2937 9.16602 15.8335V4.16683C9.16602 3.70659 9.53911 3.3335 9.99935 3.3335Z" fill="white"/>
<path fill-rule="evenodd" clip-rule="evenodd" d="M9.4114 3.57757C9.73683 3.25214 10.2645 3.25214 10.5899 3.57757L16.4232 9.41091C16.7487 9.73634 16.7487 10.264 16.4232 10.5894C16.0978 10.9149 15.5702 10.9149 15.2447 10.5894L10.0007 5.34534L4.75657 10.5894C4.43114 10.9149 3.9035 10.9149 3.57806 10.5894C3.25263 10.264 3.25263 9.73634 3.57806 9.41091L9.4114 3.57757Z" fill="white"/>
</svg>
