<?xml version="1.0" encoding="UTF-8"?>
<svg id="Layer_1" data-name="Layer 1" xmlns="http://www.w3.org/2000/svg" viewBox="0 0 440 40">
  <defs>
    <style>
      .cls-1 {
        fill: #eee;
      }

      .cls-2 {
        fill: #a5a5a5;
      }

      .cls-3 {
        fill: #cccece;
      }

      .cls-4 {
        fill: #dcdcdc;
      }

      .cls-5 {
        fill: #121a38;
      }
    </style>
  </defs>
  <rect class="cls-4" width="440" height="40"/>
  <rect class="cls-1" x="128" y="11" width="302" height="2"/>
  <rect class="cls-3" x="128" y="13" width="302" height="2"/>
  <rect class="cls-1" x="128" y="18" width="302" height="2"/>
  <rect class="cls-3" x="128" y="20" width="302" height="2"/>
  <rect class="cls-1" x="128" y="25" width="302" height="2"/>
  <rect class="cls-3" x="128" y="27" width="302" height="2"/>
  <g>
    <rect class="cls-3" x="10" y="12" width="16" height="16"/>
    <rect class="cls-5" x="10" y="12" width="16" height="2"/>
    <rect class="cls-1" x="12" y="14" width="12" height="2"/>
    <rect class="cls-5" x="10" y="26" width="16" height="2"/>
    <rect class="cls-5" x="3" y="19" width="16" height="2" transform="translate(-9 31) rotate(-90)"/>
    <rect class="cls-5" x="17" y="19" width="16" height="2" transform="translate(5 45) rotate(-90)"/>
    <rect class="cls-2" x="12" y="24" width="12" height="2"/>
    <rect class="cls-1" x="7" y="19" width="12" height="2" transform="translate(-7 33) rotate(-90)"/>
    <rect class="cls-2" x="17" y="19" width="12" height="2" transform="translate(3 43) rotate(-90)"/>
  </g>
  <g>
    <path class="cls-5" d="M33.54,15h7v1h-5v3h5v1h-5v5h3v-1h2v1h-1v1h-5v-1h-1V15Zm7,5h2v-6h2v13h-2v-6h-2v-1Zm5-6h2v13h-2V14Z"/>
    <path class="cls-5" d="M49.86,25h14v1h-14v-1Zm1-5h3v-1h1v-1h1v-3h2v3h1v1h1v1h3v1h-4v-1h-1v-1h-2v1h-1v1h-4v-1Z"/>
    <path class="cls-5" d="M66.18,25h14v1h-14v-1Zm1-10h12v1h-10v2h9v1h-9v2h10v1h-11v-1h-1v-6Z"/>
    <path class="cls-5" d="M87.82,14h6v6h-1v1h-4v-1h3v-5h-4v-1Zm1,8h12v3h-10v1h10v1h-11v-1h-1v-2h10v-1h-10v-1Zm7-6h3v-2h2v7h-2v-2h-3v-1h3v-1h-3v-1Z"/>
    <path class="cls-5" d="M104.14,25h3v-5h2v5h5V14h2v6h3v1h-3v6h-2v-1h-10v-1Zm0-10h8v6h-1v1h-2v-1h1v-5h-6v-1Z"/>
  </g>
</svg>