<?xml version="1.0" encoding="UTF-8"?>
<svg id="Layer_1" data-name="Layer 1" xmlns="http://www.w3.org/2000/svg" viewBox="0 0 440 40">
  <defs>
    <style>
      .cls-1 {
        fill: #eee;
      }

      .cls-2 {
        fill: #a5a5a5;
      }

      .cls-3 {
        fill: #cccece;
      }

      .cls-4 {
        fill: #dcdcdc;
      }

      .cls-5, .cls-6 {
        fill: #121a38;
      }

      .cls-6 {
        font-family: NeoDunggeunmoPro-Regular, 'NeoDunggeunmo Pro';
        font-size: 16px;
        letter-spacing: .02em;
      }
    </style>
  </defs>
  <rect class="cls-4" width="440" height="40"/>
  <rect class="cls-1" x="128" y="11" width="302" height="2"/>
  <rect class="cls-3" x="128" y="13" width="302" height="2"/>
  <rect class="cls-1" x="128" y="18" width="302" height="2"/>
  <rect class="cls-3" x="128" y="20" width="302" height="2"/>
  <rect class="cls-1" x="128" y="25" width="302" height="2"/>
  <rect class="cls-3" x="128" y="27" width="302" height="2"/>
  <g>
    <rect class="cls-3" x="10" y="12" width="16" height="16"/>
    <rect class="cls-5" x="10" y="12" width="16" height="2"/>
    <rect class="cls-1" x="12" y="14" width="12" height="2"/>
    <rect class="cls-5" x="10" y="26" width="16" height="2"/>
    <rect class="cls-5" x="3" y="19" width="16" height="2" transform="translate(-9 31) rotate(-90)"/>
    <rect class="cls-5" x="17" y="19" width="16" height="2" transform="translate(5 45) rotate(-90)"/>
    <rect class="cls-2" x="12" y="24" width="12" height="2"/>
    <rect class="cls-1" x="7" y="19" width="12" height="2" transform="translate(-7 33) rotate(-90)"/>
    <rect class="cls-2" x="17" y="19" width="12" height="2" transform="translate(3 43) rotate(-90)"/>
  </g>
  <text class="cls-6" transform="translate(32.54 25)"><tspan x="0" y="0">테스트 결과</tspan></text>
</svg>