<svg width="17" height="16" viewBox="0 0 17 16" fill="none" xmlns="http://www.w3.org/2000/svg">
<path fill-rule="evenodd" clip-rule="evenodd" d="M3.16667 7.33331C3.53486 7.33331 3.83333 7.63179 3.83333 7.99998V13.3333C3.83333 13.5101 3.90357 13.6797 4.0286 13.8047C4.15362 13.9297 4.32319 14 4.5 14H12.5C12.6768 14 12.8464 13.9297 12.9714 13.8047C13.0964 13.6797 13.1667 13.5101 13.1667 13.3333V7.99998C13.1667 7.63179 13.4651 7.33331 13.8333 7.33331C14.2015 7.33331 14.5 7.63179 14.5 7.99998V13.3333C14.5 13.8637 14.2893 14.3725 13.9142 14.7475C13.5391 15.1226 13.0304 15.3333 12.5 15.3333H4.5C3.96957 15.3333 3.46086 15.1226 3.08579 14.7475C2.71071 14.3725 2.5 13.8637 2.5 13.3333V7.99998C2.5 7.63179 2.79848 7.33331 3.16667 7.33331Z" fill="#191F28"/>
<path fill-rule="evenodd" clip-rule="evenodd" d="M8.02794 0.861949C8.28829 0.6016 8.7104 0.6016 8.97075 0.861949L11.6374 3.52862C11.8978 3.78897 11.8978 4.21108 11.6374 4.47142C11.3771 4.73177 10.955 4.73177 10.6946 4.47142L8.49935 2.27616L6.30409 4.47142C6.04374 4.73177 5.62163 4.73177 5.36128 4.47142C5.10093 4.21108 5.10093 3.78897 5.36128 3.52862L8.02794 0.861949Z" fill="#191F28"/>
<path fill-rule="evenodd" clip-rule="evenodd" d="M8.50065 0.666687C8.86884 0.666687 9.16732 0.965164 9.16732 1.33335V10C9.16732 10.3682 8.86884 10.6667 8.50065 10.6667C8.13246 10.6667 7.83398 10.3682 7.83398 10V1.33335C7.83398 0.965164 8.13246 0.666687 8.50065 0.666687Z" fill="#191F28"/>
</svg>
