<?xml version="1.0" encoding="UTF-8"?>
<svg id="Layer_1" data-name="Layer 1" xmlns="http://www.w3.org/2000/svg" viewBox="0 0 248 148">
  <defs>
    <style>
      .cls-1 {
        fill: #e9efff;
      }

      .cls-2 {
        fill: #c6d9f4;
      }

      .cls-3 {
        fill: #2a3351;
      }
    </style>
  </defs>
  <g>
    <rect class="cls-3" x="101.38" y="59.75" width="4" height="4" transform="translate(-15.7 43.87) rotate(-22.31)"/>
    <rect class="cls-3" x="105.08" y="58.24" width="4" height="4" transform="translate(-14.85 45.16) rotate(-22.31)"/>
    <rect class="cls-3" x="110.3" y="60.42" width="4" height="4" transform="translate(-15.29 47.31) rotate(-22.31)"/>
    <rect class="cls-3" x="99.2" y="64.97" width="4" height="4" transform="translate(-17.85 43.43) rotate(-22.31)"/>
    <rect class="cls-3" x="113.34" y="67.82" width="4" height="4" transform="translate(-17.87 49.02) rotate(-22.31)"/>
    <rect class="cls-3" x="118.56" y="70" width="4" height="4" transform="translate(-18.31 51.16) rotate(-22.31)"/>
    <rect class="cls-3" x="122.26" y="68.48" width="4" height="4" transform="translate(-17.45 52.45) rotate(-22.31)"/>
    <rect class="cls-3" x="127.48" y="70.66" width="4" height="4" transform="translate(-17.89 54.6) rotate(-22.31)"/>
    <rect class="cls-3" x="129" y="74.36" width="4" height="4" transform="translate(-19.18 55.45) rotate(-22.31)"/>
    <rect class="cls-3" x="130.52" y="78.07" width="4" height="4" transform="translate(-20.47 56.3) rotate(-22.31)"/>
    <rect class="cls-3" x="131.18" y="69.15" width="4" height="4" transform="translate(-17.04 55.89) rotate(-22.31)"/>
    <rect class="cls-3" x="134.88" y="67.63" width="4" height="4" transform="translate(-16.19 57.18) rotate(-22.31)"/>
    <rect class="cls-3" x="140.1" y="69.81" width="4" height="4" transform="translate(-16.62 59.32) rotate(-22.31)"/>
    <rect class="cls-3" x="141.62" y="73.51" width="4" height="4" transform="translate(-17.91 60.18) rotate(-22.31)"/>
    <rect class="cls-3" x="143.14" y="77.21" width="4" height="4" transform="translate(-19.21 61.03) rotate(-22.31)"/>
    <rect class="cls-3" x="143.8" y="68.29" width="4" height="4" transform="translate(-15.77 60.61) rotate(-22.31)"/>
    <rect class="cls-3" x="149.02" y="70.47" width="4" height="4" transform="translate(-16.21 62.76) rotate(-22.31)"/>
    <rect class="cls-3" x="150.54" y="74.17" width="4" height="4" transform="translate(-17.5 63.61) rotate(-22.31)"/>
    <rect class="cls-3" x="152.06" y="77.87" width="4" height="4" transform="translate(-18.79 64.47) rotate(-22.31)"/>
    <rect class="cls-3" x="153.58" y="81.57" width="4" height="4" transform="translate(-20.08 65.32) rotate(-22.31)"/>
    <rect class="cls-3" x="155.09" y="85.27" width="4" height="4" transform="translate(-21.37 66.17) rotate(-22.31)"/>
    <rect class="cls-3" x="156.61" y="88.98" width="4" height="4" transform="translate(-22.66 67.03) rotate(-22.31)"/>
    <rect class="cls-3" x="154.43" y="94.19" width="4" height="4" transform="translate(-24.81 66.59) rotate(-22.31)"/>
    <rect class="cls-3" x="155.95" y="97.89" width="4" height="4" transform="translate(-26.1 67.44) rotate(-22.31)"/>
    <rect class="cls-3" x="153.77" y="103.11" width="4" height="4" transform="translate(-28.24 67) rotate(-22.31)"/>
    <rect class="cls-3" x="155.29" y="106.81" width="4" height="4" transform="translate(-29.53 67.86) rotate(-22.31)"/>
    <rect class="cls-3" x="151.59" y="108.33" width="4" height="4" transform="translate(-30.39 66.57) rotate(-22.31)"/>
    <rect class="cls-3" x="147.88" y="109.85" width="4" height="4" transform="translate(-31.24 65.28) rotate(-22.31)"/>
    <rect class="cls-3" x="144.18" y="111.37" width="4" height="4" transform="translate(-32.1 63.98) rotate(-22.31)"/>
    <rect class="cls-3" x="140.48" y="112.89" width="4" height="4" transform="translate(-32.95 62.69) rotate(-22.31)"/>
    <rect class="cls-3" x="136.78" y="114.41" width="4" height="4" transform="translate(-33.8 61.4) rotate(-22.31)"/>
    <rect class="cls-3" x="133.08" y="115.93" width="4" height="4" transform="translate(-34.66 60.11) rotate(-22.31)"/>
    <rect class="cls-3" x="129.38" y="117.44" width="4" height="4" transform="translate(-35.51 58.82) rotate(-22.31)"/>
    <rect class="cls-3" x="125.68" y="118.96" width="4" height="4" transform="translate(-36.36 57.53) rotate(-22.31)"/>
    <rect class="cls-3" x="156.8" y="110.51" width="4" height="4" transform="translate(-30.83 68.71) rotate(-22.31)"/>
    <rect class="cls-3" x="153.1" y="112.03" width="4" height="4" transform="translate(-31.68 67.42) rotate(-22.31)"/>
    <rect class="cls-3" x="149.4" y="113.55" width="4" height="4" transform="translate(-32.53 66.13) rotate(-22.31)"/>
    <rect class="cls-3" x="145.7" y="115.07" width="4" height="4" transform="translate(-33.39 64.84) rotate(-22.31)"/>
    <rect class="cls-3" x="142" y="116.59" width="4" height="4" transform="translate(-34.24 63.55) rotate(-22.31)"/>
    <rect class="cls-3" x="138.3" y="118.11" width="4" height="4" transform="translate(-35.09 62.26) rotate(-22.31)"/>
    <rect class="cls-3" x="134.6" y="119.63" width="4" height="4" transform="translate(-35.95 60.96) rotate(-22.31)"/>
    <rect class="cls-3" x="130.9" y="121.14" width="4" height="4" transform="translate(-36.8 59.67) rotate(-22.31)"/>
    <rect class="cls-3" x="127.2" y="122.66" width="4" height="4" transform="translate(-37.65 58.38) rotate(-22.31)"/>
    <rect class="cls-3" x="124.16" y="115.26" width="4" height="4" transform="translate(-35.07 56.68) rotate(-22.31)"/>
    <rect class="cls-3" x="118.94" y="113.08" width="4" height="4" transform="translate(-34.63 54.53) rotate(-22.31)"/>
    <rect class="cls-3" x="113.72" y="110.9" width="4" height="4" transform="translate(-34.2 52.39) rotate(-22.31)"/>
    <rect class="cls-3" x="112.21" y="107.2" width="4" height="4" transform="translate(-32.91 51.53) rotate(-22.31)"/>
    <rect class="cls-3" x="106.99" y="105.02" width="4" height="4" transform="translate(-32.47 49.39) rotate(-22.31)"/>
    <rect class="cls-3" x="105.47" y="101.32" width="4" height="4" transform="translate(-31.18 48.53) rotate(-22.31)"/>
    <rect class="cls-3" x="103.95" y="97.61" width="4" height="4" transform="translate(-29.89 47.68) rotate(-22.31)"/>
    <rect class="cls-3" x="102.43" y="93.91" width="4" height="4" transform="translate(-28.59 46.83) rotate(-22.31)"/>
    <rect class="cls-3" x="102.24" y="72.37" width="4" height="4" transform="translate(-20.43 45.14) rotate(-22.31)"/>
    <rect class="cls-3" x="111.82" y="64.12" width="4" height="4" transform="translate(-16.58 48.16) rotate(-22.31)"/>
    <rect class="cls-3" x="100.72" y="68.67" width="4" height="4" transform="translate(-19.14 44.29) rotate(-22.31)"/>
    <rect class="cls-3" x="114.86" y="71.52" width="4" height="4" transform="translate(-19.16 49.87) rotate(-22.31)"/>
    <rect class="cls-3" x="103.76" y="76.07" width="4" height="4" transform="translate(-21.72 46) rotate(-22.31)"/>
    <rect class="cls-3" x="116.38" y="75.22" width="4" height="4" transform="translate(-20.45 50.72) rotate(-22.31)"/>
    <rect class="cls-3" x="105.28" y="79.78" width="4" height="4" transform="translate(-23.01 46.85) rotate(-22.31)"/>
    <rect class="cls-3" x="117.9" y="78.92" width="4" height="4" transform="translate(-21.74 51.58) rotate(-22.31)"/>
    <rect class="cls-3" x="119.42" y="82.62" width="4" height="4" transform="translate(-23.04 52.43) rotate(-22.31)"/>
    <rect class="cls-3" x="132.04" y="81.77" width="4" height="4" transform="translate(-21.77 57.16) rotate(-22.31)"/>
    <rect class="cls-3" x="144.66" y="80.91" width="4" height="4" transform="translate(-20.5 61.88) rotate(-22.31)"/>
    <rect class="cls-3" x="120.93" y="86.32" width="4" height="4" transform="translate(-24.33 53.28) rotate(-22.31)"/>
    <rect class="cls-3" x="106.8" y="83.48" width="4" height="4" transform="translate(-24.31 47.7) rotate(-22.31)"/>
    <rect class="cls-3" x="108.31" y="87.18" width="4" height="4" transform="translate(-25.6 48.56) rotate(-22.31)"/>
    <rect class="cls-3" x="109.83" y="90.88" width="4" height="4" transform="translate(-26.89 49.41) rotate(-22.31)"/>
    <rect class="cls-3" x="104.61" y="88.7" width="4" height="4" transform="translate(-26.45 47.26) rotate(-22.31)"/>
    <rect class="cls-3" x="100.91" y="90.21" width="4" height="4" transform="translate(-27.3 45.97) rotate(-22.31)"/>
    <rect class="cls-3" x="111.35" y="94.58" width="4" height="4" transform="translate(-28.18 50.26) rotate(-22.31)"/>
  </g>
  <g>
    <g>
      <rect class="cls-3" x="97.92" y="46.04" width="4" height="4" transform="translate(-10.76 41.53) rotate(-22.31)"/>
      <rect class="cls-3" x="96.4" y="42.34" width="4" height="4" transform="translate(-9.47 40.68) rotate(-22.31)"/>
    </g>
    <g>
      <rect class="cls-3" x="89.18" y="53.64" width="4" height="4" transform="translate(-7.88 95.61) rotate(-53.37)"/>
      <rect class="cls-3" x="85.97" y="51.26" width="4" height="4" transform="translate(-7.26 92.07) rotate(-53.37)"/>
    </g>
    <g>
      <rect class="cls-3" x="86.86" y="64.74" width="4" height="4" transform="translate(6.18 141) rotate(-78.84)"/>
      <rect class="cls-3" x="82.94" y="63.97" width="4" height="4" transform="translate(3.77 136.53) rotate(-78.84)"/>
    </g>
    <g>
      <rect class="cls-3" x="118.93" y="51.59" width="4" height="4" transform="translate(190.8 165.9) rotate(-145.78)"/>
      <rect class="cls-3" x="121.18" y="48.28" width="4" height="4" transform="translate(196.76 161.12) rotate(-145.78)"/>
    </g>
    <g>
      <rect class="cls-3" x="109.48" y="45.31" width="4" height="4" transform="translate(214.47 111.02) rotate(-171.26)"/>
      <rect class="cls-3" x="110.08" y="41.36" width="4" height="4" transform="translate(216.28 103.26) rotate(-171.26)"/>
    </g>
  </g>
  <rect class="cls-1" x="145.32" y="71.99" width="4" height="4" transform="translate(-17.06 61.47) rotate(-22.31)"/>
  <rect class="cls-1" x="146.84" y="75.69" width="4" height="4" transform="translate(-18.35 62.32) rotate(-22.31)"/>
  <rect class="cls-1" x="148.36" y="79.39" width="4" height="4" transform="translate(-19.64 63.17) rotate(-22.31)"/>
  <rect class="cls-1" x="149.87" y="83.09" width="4" height="4" transform="translate(-20.93 64.03) rotate(-22.31)"/>
  <rect class="cls-1" x="147.69" y="88.31" width="4" height="4" transform="translate(-23.08 63.59) rotate(-22.31)"/>
  <rect class="cls-1" x="149.21" y="92.01" width="4" height="4" transform="translate(-24.37 64.44) rotate(-22.31)"/>
  <rect class="cls-1" x="147.03" y="97.23" width="4" height="4" transform="translate(-26.51 64.01) rotate(-22.31)"/>
  <rect class="cls-1" x="148.55" y="100.93" width="4" height="4" transform="translate(-27.81 64.86) rotate(-22.31)"/>
  <rect class="cls-1" x="144.85" y="102.45" width="4" height="4" transform="translate(-28.66 63.57) rotate(-22.31)"/>
  <rect class="cls-1" x="141.15" y="103.97" width="4" height="4" transform="translate(-29.51 62.28) rotate(-22.31)"/>
  <rect class="cls-1" x="137.45" y="105.49" width="4" height="4" transform="translate(-30.37 60.99) rotate(-22.31)"/>
  <rect class="cls-1" x="133.75" y="107.01" width="4" height="4" transform="translate(-31.22 59.7) rotate(-22.31)"/>
  <rect class="cls-1" x="130.05" y="108.52" width="4" height="4" transform="translate(-32.07 58.4) rotate(-22.31)"/>
  <rect class="cls-1" x="126.34" y="110.04" width="4" height="4" transform="translate(-32.93 57.11) rotate(-22.31)"/>
  <rect class="cls-1" x="122.64" y="111.56" width="4" height="4" transform="translate(-33.78 55.82) rotate(-22.31)"/>
  <rect class="cls-2" x="146.37" y="106.15" width="4" height="4" transform="translate(-29.95 64.42) rotate(-22.31)"/>
  <rect class="cls-2" x="142.67" y="107.67" width="4" height="4" transform="translate(-30.8 63.13) rotate(-22.31)"/>
  <rect class="cls-2" x="138.96" y="109.19" width="4" height="4" transform="translate(-31.66 61.84) rotate(-22.31)"/>
  <rect class="cls-2" x="135.26" y="110.71" width="4" height="4" transform="translate(-32.51 60.55) rotate(-22.31)"/>
  <rect class="cls-2" x="131.56" y="112.23" width="4" height="4" transform="translate(-33.37 59.26) rotate(-22.31)"/>
  <rect class="cls-2" x="127.86" y="113.74" width="4" height="4" transform="translate(-34.22 57.97) rotate(-22.31)"/>
  <rect class="cls-2" x="151.39" y="86.79" width="4" height="4" transform="translate(-22.23 64.88) rotate(-22.31)"/>
  <rect class="cls-2" x="152.91" y="90.49" width="4" height="4" transform="translate(-23.52 65.74) rotate(-22.31)"/>
  <rect class="cls-2" x="150.73" y="95.71" width="4" height="4" transform="translate(-25.66 65.3) rotate(-22.31)"/>
  <rect class="cls-2" x="152.25" y="99.41" width="4" height="4" transform="translate(-26.95 66.15) rotate(-22.31)"/>
  <rect class="cls-2" x="150.07" y="104.63" width="4" height="4" transform="translate(-29.1 65.71) rotate(-22.31)"/>
</svg>