<?xml version="1.0" encoding="UTF-8"?>
<svg id="Layer_1" data-name="Layer 1" xmlns="http://www.w3.org/2000/svg" viewBox="0 0 84 84">
  <defs>
    <style>
      .cls-1 {
        fill: #00b0ef;
      }

      .cls-2 {
        fill: #0094d5;
      }

      .cls-3 {
        fill: #9eeaff;
      }

      .cls-4 {
        fill: #d3f6ff;
      }

      .cls-5 {
        fill: #d8f7ff;
      }

      .cls-6 {
        fill: #231f20;
      }

      .cls-7 {
        fill: #82e7ff;
      }

      .cls-8 {
        fill: #45d7ff;
      }
    </style>
  </defs>
  <g>
    <rect class="cls-8" x="36" y="37" width="4" height="4"/>
    <rect class="cls-8" x="40" y="37" width="4" height="4"/>
    <rect class="cls-5" x="32" y="37" width="4" height="4"/>
    <rect class="cls-5" x="28" y="13" width="4" height="4"/>
    <rect class="cls-8" x="32" y="13" width="4" height="4"/>
    <rect class="cls-8" x="36" y="13" width="4" height="4"/>
    <rect class="cls-8" x="24" y="17" width="4" height="4"/>
    <rect class="cls-8" x="28" y="37" width="4" height="4"/>
    <g>
      <rect class="cls-1" x="48" y="37" width="4" height="4"/>
      <rect class="cls-1" x="48" y="61" width="4" height="4"/>
      <rect class="cls-1" x="36" y="61" width="4" height="4"/>
      <rect class="cls-1" x="40" y="61" width="4" height="4"/>
      <rect class="cls-1" x="32" y="61" width="4" height="4"/>
      <rect class="cls-1" x="24" y="13" width="4" height="4"/>
      <rect class="cls-1" x="20" y="13" width="4" height="4"/>
      <rect class="cls-1" x="40" y="13" width="4" height="4"/>
      <rect class="cls-1" x="48" y="13" width="4" height="4"/>
      <rect class="cls-1" x="52" y="13" width="4" height="4"/>
      <rect class="cls-1" x="56" y="13" width="4" height="4"/>
      <rect class="cls-1" x="28" y="17" width="4" height="4"/>
      <rect class="cls-1" x="20" y="17" width="4" height="4"/>
      <rect class="cls-1" x="52" y="17" width="4" height="4"/>
      <rect class="cls-1" x="44" y="37" width="4" height="4"/>
      <rect class="cls-1" x="44" y="61" width="4" height="4"/>
      <rect class="cls-1" x="44" y="13" width="4" height="4"/>
      <rect class="cls-1" x="56" y="17" width="4" height="4"/>
      <rect class="cls-1" x="24" y="21" width="4" height="4"/>
      <rect class="cls-1" x="20" y="21" width="4" height="4"/>
      <rect class="cls-1" x="52" y="21" width="4" height="4"/>
      <rect class="cls-1" x="56" y="21" width="4" height="4"/>
      <rect class="cls-1" x="24" y="25" width="4" height="4"/>
      <rect class="cls-1" x="20" y="25" width="4" height="4"/>
      <rect class="cls-1" x="52" y="25" width="4" height="4"/>
      <rect class="cls-1" x="56" y="25" width="4" height="4"/>
      <rect class="cls-1" x="24" y="29" width="4" height="4"/>
      <rect class="cls-1" x="20" y="29" width="4" height="4"/>
      <rect class="cls-1" x="52" y="29" width="4" height="4"/>
      <rect class="cls-1" x="56" y="29" width="4" height="4"/>
      <rect class="cls-1" x="24" y="33" width="4" height="4"/>
      <rect class="cls-1" x="20" y="33" width="4" height="4"/>
      <rect class="cls-1" x="24" y="37" width="4" height="4"/>
      <rect class="cls-1" x="20" y="37" width="4" height="4"/>
      <rect class="cls-1" x="28" y="41" width="4" height="4"/>
      <rect class="cls-1" x="24" y="41" width="4" height="4"/>
      <rect class="cls-1" x="20" y="41" width="4" height="4"/>
      <rect class="cls-1" x="52" y="33" width="4" height="4"/>
      <rect class="cls-1" x="56" y="33" width="4" height="4"/>
      <rect class="cls-1" x="52" y="37" width="4" height="4"/>
      <rect class="cls-1" x="52" y="41" width="4" height="4"/>
      <rect class="cls-1" x="20" y="45" width="4" height="4"/>
      <rect class="cls-1" x="52" y="45" width="4" height="4"/>
      <rect class="cls-1" x="56" y="45" width="4" height="4"/>
      <rect class="cls-1" x="24" y="49" width="4" height="4"/>
      <rect class="cls-1" x="20" y="49" width="4" height="4"/>
      <rect class="cls-1" x="52" y="49" width="4" height="4"/>
      <rect class="cls-1" x="56" y="49" width="4" height="4"/>
      <rect class="cls-1" x="24" y="53" width="4" height="4"/>
      <rect class="cls-1" x="20" y="53" width="4" height="4"/>
      <rect class="cls-1" x="52" y="53" width="4" height="4"/>
      <rect class="cls-1" x="56" y="53" width="4" height="4"/>
      <rect class="cls-1" x="24" y="57" width="4" height="4"/>
      <rect class="cls-1" x="20" y="57" width="4" height="4"/>
      <rect class="cls-1" x="28" y="61" width="4" height="4"/>
      <rect class="cls-1" x="24" y="61" width="4" height="4"/>
      <rect class="cls-1" x="20" y="61" width="4" height="4"/>
      <rect class="cls-1" x="52" y="57" width="4" height="4"/>
      <rect class="cls-1" x="56" y="57" width="4" height="4"/>
      <rect class="cls-1" x="52" y="61" width="4" height="4"/>
      <rect class="cls-1" x="56" y="61" width="4" height="4"/>
      <rect class="cls-1" x="24" y="45" width="4" height="4"/>
    </g>
    <g>
      <rect class="cls-2" x="36" y="41" width="4" height="4"/>
      <rect class="cls-2" x="40" y="41" width="4" height="4"/>
      <rect class="cls-2" x="32" y="41" width="4" height="4"/>
      <rect class="cls-2" x="48" y="41" width="4" height="4"/>
      <rect class="cls-2" x="48" y="65" width="4" height="4"/>
      <rect class="cls-2" x="36" y="65" width="4" height="4"/>
      <rect class="cls-2" x="40" y="65" width="4" height="4"/>
      <rect class="cls-2" x="32" y="65" width="4" height="4"/>
      <rect class="cls-2" x="32" y="17" width="4" height="4"/>
      <rect class="cls-2" x="36" y="17" width="4" height="4"/>
      <rect class="cls-2" x="40" y="17" width="4" height="4"/>
      <rect class="cls-2" x="48" y="17" width="4" height="4"/>
      <rect class="cls-2" x="44" y="41" width="4" height="4"/>
      <rect class="cls-2" x="44" y="65" width="4" height="4"/>
      <rect class="cls-2" x="44" y="17" width="4" height="4"/>
      <rect class="cls-2" x="60" y="17" width="4" height="4"/>
      <rect class="cls-2" x="28" y="21" width="4" height="4"/>
      <rect class="cls-2" x="60" y="21" width="4" height="4"/>
      <rect class="cls-2" x="28" y="25" width="4" height="4"/>
      <rect class="cls-2" x="60" y="25" width="4" height="4"/>
      <rect class="cls-2" x="28" y="29" width="4" height="4"/>
      <rect class="cls-2" x="60" y="29" width="4" height="4"/>
      <rect class="cls-2" x="28" y="33" width="4" height="4"/>
      <rect class="cls-2" x="56" y="37" width="4" height="4"/>
      <rect class="cls-2" x="56" y="41" width="4" height="4"/>
      <rect class="cls-2" x="28" y="45" width="4" height="4"/>
      <rect class="cls-2" x="28" y="49" width="4" height="4"/>
      <rect class="cls-2" x="28" y="53" width="4" height="4"/>
      <rect class="cls-2" x="28" y="57" width="4" height="4"/>
      <rect class="cls-2" x="28" y="65" width="4" height="4"/>
      <rect class="cls-2" x="24" y="65" width="4" height="4"/>
      <rect class="cls-2" x="20" y="65" width="4" height="4"/>
      <rect class="cls-2" x="52" y="65" width="4" height="4"/>
      <rect class="cls-2" x="56" y="65" width="4" height="4"/>
      <rect class="cls-2" x="60" y="33" width="4" height="4"/>
      <rect class="cls-2" x="60" y="45" width="4" height="4"/>
      <rect class="cls-2" x="60" y="49" width="4" height="4"/>
      <rect class="cls-2" x="60" y="53" width="4" height="4"/>
      <rect class="cls-2" x="60" y="57" width="4" height="4"/>
      <rect class="cls-2" x="60" y="61" width="4" height="4"/>
    </g>
  </g>
  <g>
    <rect class="cls-6" x="28" y="9" width="4" height="4"/>
    <rect class="cls-6" x="24" y="9" width="4" height="4"/>
    <rect class="cls-6" x="20" y="9" width="4" height="4"/>
    <rect class="cls-6" x="16" y="9" width="4" height="4"/>
    <rect class="cls-6" x="16" y="13" width="4" height="4"/>
    <rect class="cls-6" x="16" y="17" width="4" height="4"/>
    <rect class="cls-6" x="16" y="21" width="4" height="4"/>
    <rect class="cls-6" x="16" y="25" width="4" height="4"/>
    <rect class="cls-6" x="32" y="9" width="4" height="4"/>
    <rect class="cls-6" x="36" y="9" width="4" height="4"/>
    <rect class="cls-6" x="40" y="9" width="4" height="4"/>
    <rect class="cls-6" x="48" y="9" width="4" height="4"/>
    <rect class="cls-6" x="32" y="21" width="4" height="4"/>
    <rect class="cls-6" x="36" y="21" width="4" height="4"/>
    <rect class="cls-6" x="40" y="21" width="4" height="4"/>
    <rect class="cls-6" x="36" y="33" width="4" height="4"/>
    <rect class="cls-6" x="40" y="33" width="4" height="4"/>
    <rect class="cls-6" x="48" y="21" width="4" height="4"/>
    <rect class="cls-6" x="32" y="29" width="4" height="4"/>
    <rect class="cls-6" x="48" y="29" width="4" height="4"/>
    <rect class="cls-6" x="32" y="33" width="4" height="4"/>
    <rect class="cls-6" x="48" y="33" width="4" height="4"/>
    <rect class="cls-6" x="48" y="49" width="4" height="4"/>
    <rect class="cls-6" x="48" y="57" width="4" height="4"/>
    <rect class="cls-6" x="36" y="45" width="4" height="4"/>
    <rect class="cls-6" x="40" y="45" width="4" height="4"/>
    <rect class="cls-6" x="36" y="57" width="4" height="4"/>
    <rect class="cls-6" x="40" y="57" width="4" height="4"/>
    <rect class="cls-6" x="48" y="45" width="4" height="4"/>
    <rect class="cls-6" x="32" y="25" width="4" height="4"/>
    <rect class="cls-6" x="48" y="25" width="4" height="4"/>
    <rect class="cls-6" x="36" y="69" width="4" height="4"/>
    <rect class="cls-6" x="40" y="69" width="4" height="4"/>
    <rect class="cls-6" x="32" y="49" width="4" height="4"/>
    <rect class="cls-6" x="32" y="45" width="4" height="4"/>
    <rect class="cls-6" x="32" y="57" width="4" height="4"/>
    <rect class="cls-6" x="32" y="69" width="4" height="4"/>
    <rect class="cls-6" x="48" y="69" width="4" height="4"/>
    <rect class="cls-6" x="52" y="69" width="4" height="4"/>
    <rect class="cls-6" x="56" y="69" width="4" height="4"/>
    <rect class="cls-6" x="52" y="9" width="4" height="4"/>
    <rect class="cls-6" x="56" y="9" width="4" height="4"/>
    <rect class="cls-6" x="64" y="17" width="4" height="4"/>
    <rect class="cls-6" x="60" y="13" width="4" height="4"/>
    <rect class="cls-6" x="64" y="21" width="4" height="4"/>
    <rect class="cls-6" x="64" y="25" width="4" height="4"/>
    <rect class="cls-6" x="16" y="29" width="4" height="4"/>
    <rect class="cls-6" x="64" y="29" width="4" height="4"/>
    <rect class="cls-6" x="16" y="33" width="4" height="4"/>
    <rect class="cls-6" x="64" y="33" width="4" height="4"/>
    <rect class="cls-6" x="16" y="37" width="4" height="4"/>
    <rect class="cls-6" x="16" y="41" width="4" height="4"/>
    <rect class="cls-6" x="60" y="37" width="4" height="4"/>
    <rect class="cls-6" x="60" y="41" width="4" height="4"/>
    <rect class="cls-6" x="16" y="45" width="4" height="4"/>
    <rect class="cls-6" x="64" y="45" width="4" height="4"/>
    <rect class="cls-6" x="16" y="49" width="4" height="4"/>
    <rect class="cls-6" x="64" y="49" width="4" height="4"/>
    <rect class="cls-6" x="48" y="53" width="4" height="4"/>
    <rect class="cls-6" x="32" y="53" width="4" height="4"/>
    <rect class="cls-6" x="16" y="53" width="4" height="4"/>
    <rect class="cls-6" x="64" y="53" width="4" height="4"/>
    <rect class="cls-6" x="16" y="57" width="4" height="4"/>
    <rect class="cls-6" x="64" y="57" width="4" height="4"/>
    <rect class="cls-6" x="16" y="61" width="4" height="4"/>
    <rect class="cls-6" x="16" y="65" width="4" height="4"/>
    <rect class="cls-6" x="64" y="61" width="4" height="4"/>
    <rect class="cls-6" x="60" y="65" width="4" height="4"/>
    <rect class="cls-6" x="16" y="69" width="4" height="4"/>
    <rect class="cls-6" x="20" y="69" width="4" height="4"/>
    <rect class="cls-6" x="24" y="69" width="4" height="4"/>
    <rect class="cls-6" x="28" y="69" width="4" height="4"/>
  </g>
  <g>
    <g>
      <rect class="cls-7" x="68" y="21" width="4" height="4"/>
      <rect class="cls-7" x="68" y="17" width="4" height="4"/>
      <rect class="cls-7" x="64" y="13" width="4" height="4"/>
      <rect class="cls-7" x="60" y="9" width="4" height="4"/>
      <rect class="cls-7" x="68" y="25" width="4" height="4"/>
      <rect class="cls-7" x="68" y="29" width="4" height="4"/>
      <rect class="cls-7" x="68" y="33" width="4" height="4"/>
      <rect class="cls-7" x="64" y="37" width="4" height="4"/>
      <rect class="cls-7" x="64" y="41" width="4" height="4"/>
      <rect class="cls-7" x="68" y="45" width="4" height="4"/>
      <rect class="cls-7" x="68" y="49" width="4" height="4"/>
      <rect class="cls-7" x="68" y="53" width="4" height="4"/>
      <rect class="cls-7" x="36" y="49" width="4" height="4"/>
      <rect class="cls-7" x="40" y="49" width="4" height="4"/>
      <rect class="cls-7" x="36" y="53" width="4" height="4"/>
      <rect class="cls-7" x="36" y="25" width="4" height="4"/>
      <rect class="cls-7" x="40" y="25" width="4" height="4"/>
      <rect class="cls-7" x="36" y="29" width="4" height="4"/>
      <rect class="cls-7" x="68" y="57" width="4" height="4"/>
      <rect class="cls-7" x="68" y="61" width="4" height="4"/>
      <rect class="cls-7" x="64" y="65" width="4" height="4"/>
      <rect class="cls-7" x="60" y="69" width="4" height="4"/>
      <rect class="cls-7" x="56" y="73" width="4" height="4"/>
      <rect class="cls-7" x="52" y="73" width="4" height="4"/>
      <rect class="cls-7" x="48" y="73" width="4" height="4"/>
      <rect class="cls-7" x="40" y="73" width="4" height="4"/>
      <rect class="cls-7" x="36" y="73" width="4" height="4"/>
      <rect class="cls-7" x="44" y="73" width="4" height="4"/>
      <rect class="cls-7" x="32" y="73" width="4" height="4"/>
      <rect class="cls-7" x="28" y="73" width="4" height="4"/>
      <rect class="cls-7" x="24" y="73" width="4" height="4"/>
      <rect class="cls-7" x="20" y="73" width="4" height="4"/>
    </g>
    <rect class="cls-3" x="44" y="49" width="4" height="4"/>
    <rect class="cls-3" x="44" y="25" width="4" height="4"/>
    <g>
      <g>
        <rect class="cls-4" x="64" y="9" width="4" height="4"/>
        <rect class="cls-4" x="68" y="13" width="4" height="4"/>
        <rect class="cls-4" x="72" y="17" width="4" height="4"/>
        <rect class="cls-4" x="72" y="21" width="4" height="4"/>
        <rect class="cls-4" x="72" y="25" width="4" height="4"/>
        <rect class="cls-4" x="72" y="29" width="4" height="4"/>
        <rect class="cls-4" x="72" y="33" width="4" height="4"/>
        <rect class="cls-4" x="72" y="45" width="4" height="4"/>
        <rect class="cls-4" x="72" y="49" width="4" height="4"/>
        <rect class="cls-4" x="72" y="53" width="4" height="4"/>
        <rect class="cls-4" x="72" y="57" width="4" height="4"/>
        <rect class="cls-4" x="72" y="61" width="4" height="4"/>
        <rect class="cls-4" x="68" y="37" width="4" height="4"/>
        <rect class="cls-4" x="68" y="41" width="4" height="4"/>
        <rect class="cls-4" x="68" y="65" width="4" height="4"/>
        <rect class="cls-4" x="64" y="69" width="4" height="4"/>
        <rect class="cls-4" x="60" y="73" width="4" height="4"/>
        <rect class="cls-4" x="56" y="77" width="4" height="4"/>
        <rect class="cls-4" x="52" y="77" width="4" height="4"/>
        <rect class="cls-4" x="48" y="77" width="4" height="4"/>
        <rect class="cls-4" x="44" y="29" width="4" height="4"/>
        <rect class="cls-4" x="44" y="53" width="4" height="4"/>
        <rect class="cls-4" x="44" y="77" width="4" height="4"/>
        <rect class="cls-4" x="40" y="77" width="4" height="4"/>
        <rect class="cls-4" x="36" y="77" width="4" height="4"/>
        <rect class="cls-4" x="32" y="77" width="4" height="4"/>
        <rect class="cls-4" x="28" y="77" width="4" height="4"/>
        <rect class="cls-4" x="24" y="77" width="4" height="4"/>
      </g>
      <rect class="cls-4" x="40" y="29" width="4" height="4"/>
      <rect class="cls-4" x="40" y="53" width="4" height="4"/>
    </g>
  </g>
  <rect class="cls-6" x="44" y="9" width="4" height="4"/>
  <rect class="cls-6" x="44" y="21" width="4" height="4"/>
  <rect class="cls-6" x="44" y="33" width="4" height="4"/>
  <rect class="cls-6" x="44" y="57" width="4" height="4"/>
  <rect class="cls-6" x="44" y="45" width="4" height="4"/>
  <rect class="cls-6" x="44" y="69" width="4" height="4"/>
</svg>