<?xml version="1.0" encoding="UTF-8"?>
<svg id="Layer_1" data-name="Layer 1" xmlns="http://www.w3.org/2000/svg" viewBox="0 0 392 308">
  <defs>
    <style>
      .cls-1 {
        fill: #fff;
      }

      .cls-2 {
        fill: #ffe180;
      }

      .cls-3 {
        fill: #ffe281;
      }

      .cls-4 {
        fill: #ffcf00;
      }

      .cls-5 {
        fill: #fbf4df;
      }

      .cls-6 {
        fill: #5b3a09;
      }
    </style>
  </defs>
  <g>
    <rect class="cls-2" x="2" y="4" width="388" height="302"/>
    <rect class="cls-1" x="9" y="8.88" width="374" height="290.25"/>
    <rect class="cls-4" x="8" y="8" width="376" height="2"/>
    <rect class="cls-5" x="4" y="2" width="384" height="2"/>
    <rect class="cls-4" x="8" y="298" width="376" height="2"/>
    <rect class="cls-4" x="-137" y="153" width="292" height="2" transform="translate(-145 163) rotate(-90)"/>
    <rect class="cls-5" x="-147" y="153" width="300" height="2" transform="translate(-151 157) rotate(-90)"/>
    <rect class="cls-4" x="237" y="153" width="292" height="2" transform="translate(229 537) rotate(-90)"/>
    <rect class="cls-6" x="4" width="384" height="2"/>
    <g>
      <rect class="cls-6" x="2" y="2" width="2" height="2"/>
      <rect class="cls-6" x="4" y="306" width="384" height="2"/>
      <rect class="cls-6" x="2" y="304" width="2" height="2"/>
      <rect class="cls-6" x="-149" y="153" width="300" height="2" transform="translate(155 153) rotate(90)"/>
    </g>
    <g>
      <rect class="cls-6" x="388" y="2" width="2" height="2" transform="translate(778 6) rotate(-180)"/>
      <rect class="cls-6" x="388" y="304" width="2" height="2" transform="translate(778 610) rotate(-180)"/>
      <rect class="cls-6" x="241" y="153" width="300" height="2" transform="translate(545 -237) rotate(90)"/>
    </g>
  </g>
  <rect class="cls-3" x="114.5" y="225" width="163" height="20"/>
</svg>