<?xml version="1.0" encoding="UTF-8"?>
<svg id="Layer_1" data-name="Layer 1" xmlns="http://www.w3.org/2000/svg" viewBox="0 0 80 80">
  <defs>
    <style>
      .cls-1 {
        fill: #f4ae16;
      }

      .cls-2 {
        fill: #fff;
      }

      .cls-3 {
        fill: #ffe180;
      }

      .cls-4 {
        fill: #ffedb6;
      }

      .cls-5 {
        fill: #fff700;
      }

      .cls-6 {
        fill: #fff8f0;
      }

      .cls-7 {
        fill: #ffd53e;
      }

      .cls-8 {
        fill: #5b3a09;
      }
    </style>
  </defs>
  <g>
    <rect class="cls-4" x="28" y="14" width="4" height="4"/>
    <rect class="cls-4" x="24" y="14" width="4" height="4"/>
    <rect class="cls-3" x="20" y="14" width="4" height="4"/>
    <rect class="cls-3" x="32" y="14" width="4" height="4"/>
    <rect class="cls-3" x="40" y="14" width="4" height="4"/>
    <rect class="cls-3" x="36" y="14" width="4" height="4"/>
    <rect class="cls-3" x="44" y="14" width="4" height="4"/>
    <rect class="cls-3" x="48" y="14" width="4" height="4"/>
    <rect class="cls-1" x="56" y="14" width="4" height="4"/>
    <rect class="cls-6" x="28" y="18" width="4" height="4"/>
    <rect class="cls-6" x="24" y="18" width="4" height="4"/>
    <rect class="cls-4" x="20" y="18" width="4" height="4"/>
    <rect class="cls-6" x="28" y="22" width="4" height="4"/>
    <rect class="cls-6" x="24" y="22" width="4" height="4"/>
    <rect class="cls-4" x="20" y="22" width="4" height="4"/>
    <rect class="cls-4" x="32" y="18" width="4" height="4"/>
    <rect class="cls-4" x="32" y="22" width="4" height="4"/>
    <rect class="cls-3" x="36" y="22" width="4" height="4"/>
    <rect class="cls-4" x="28" y="26" width="4" height="4"/>
    <rect class="cls-4" x="24" y="26" width="4" height="4"/>
    <rect class="cls-3" x="20" y="26" width="4" height="4"/>
    <rect class="cls-3" x="32" y="26" width="4" height="4"/>
    <rect class="cls-3" x="28" y="30" width="4" height="4"/>
    <rect class="cls-3" x="24" y="30" width="4" height="4"/>
    <rect class="cls-3" x="20" y="30" width="4" height="4"/>
    <rect class="cls-3" x="32" y="30" width="4" height="4"/>
    <rect class="cls-3" x="28" y="34" width="4" height="4"/>
    <rect class="cls-3" x="24" y="34" width="4" height="4"/>
    <rect class="cls-3" x="20" y="34" width="4" height="4"/>
    <rect class="cls-1" x="12" y="22" width="4" height="4"/>
    <rect class="cls-6" x="8" y="22" width="4" height="4"/>
    <rect class="cls-1" x="12" y="26" width="4" height="4"/>
    <rect class="cls-3" x="8" y="26" width="4" height="4"/>
    <rect class="cls-1" x="12" y="30" width="4" height="4"/>
    <rect class="cls-3" x="8" y="30" width="4" height="4"/>
    <rect class="cls-1" x="68" y="22" width="4" height="4"/>
    <rect class="cls-6" x="64" y="22" width="4" height="4"/>
    <rect class="cls-1" x="68" y="26" width="4" height="4"/>
    <rect class="cls-3" x="64" y="26" width="4" height="4"/>
    <rect class="cls-1" x="68" y="30" width="4" height="4"/>
    <rect class="cls-3" x="64" y="30" width="4" height="4"/>
    <rect class="cls-3" x="32" y="34" width="4" height="4"/>
    <rect class="cls-3" x="28" y="38" width="4" height="4"/>
    <rect class="cls-3" x="24" y="38" width="4" height="4"/>
    <rect class="cls-8" x="20" y="42" width="4" height="4"/>
    <rect class="cls-3" x="32" y="38" width="4" height="4"/>
    <rect class="cls-3" x="36" y="26" width="4" height="4"/>
    <rect class="cls-3" x="36" y="30" width="4" height="4"/>
    <rect class="cls-5" x="36" y="34" width="4" height="4"/>
    <rect class="cls-3" x="40" y="18" width="4" height="4"/>
    <rect class="cls-5" x="36" y="18" width="4" height="4"/>
    <rect class="cls-3" x="44" y="18" width="4" height="4"/>
    <rect class="cls-3" x="48" y="18" width="4" height="4"/>
    <rect class="cls-1" x="56" y="18" width="4" height="4"/>
    <rect class="cls-3" x="28" y="42" width="4" height="4"/>
    <rect class="cls-3" x="32" y="42" width="4" height="4"/>
    <rect class="cls-3" x="40" y="42" width="4" height="4"/>
    <rect class="cls-3" x="36" y="42" width="4" height="4"/>
    <rect class="cls-3" x="40" y="38" width="4" height="4"/>
    <rect class="cls-3" x="36" y="38" width="4" height="4"/>
    <rect class="cls-7" x="44" y="42" width="4" height="4"/>
    <rect class="cls-3" x="32" y="46" width="4" height="4"/>
    <rect class="cls-7" x="40" y="46" width="4" height="4"/>
    <rect class="cls-3" x="36" y="46" width="4" height="4"/>
    <rect class="cls-1" x="40" y="50" width="4" height="4"/>
    <rect class="cls-7" x="36" y="50" width="4" height="4"/>
    <rect class="cls-1" x="40" y="54" width="4" height="4"/>
    <rect class="cls-7" x="36" y="54" width="4" height="4"/>
    <rect class="cls-7" x="40" y="58" width="4" height="4"/>
    <rect class="cls-1" x="44" y="58" width="4" height="4"/>
    <rect class="cls-7" x="36" y="58" width="4" height="4"/>
    <rect class="cls-7" x="32" y="58" width="4" height="4"/>
    <rect class="cls-1" x="40" y="62" width="4" height="4"/>
    <rect class="cls-1" x="44" y="62" width="4" height="4"/>
    <rect class="cls-1" x="48" y="62" width="4" height="4"/>
    <rect class="cls-1" x="36" y="62" width="4" height="4"/>
    <rect class="cls-1" x="32" y="62" width="4" height="4"/>
    <rect class="cls-1" x="28" y="62" width="4" height="4"/>
    <rect class="cls-1" x="44" y="46" width="4" height="4"/>
    <rect class="cls-1" x="48" y="42" width="4" height="4"/>
    <rect class="cls-3" x="40" y="22" width="4" height="4"/>
    <rect class="cls-3" x="44" y="22" width="4" height="4"/>
    <rect class="cls-3" x="48" y="22" width="4" height="4"/>
    <rect class="cls-1" x="56" y="22" width="4" height="4"/>
    <rect class="cls-3" x="40" y="26" width="4" height="4"/>
    <rect class="cls-3" x="44" y="26" width="4" height="4"/>
    <rect class="cls-3" x="48" y="26" width="4" height="4"/>
    <rect class="cls-1" x="56" y="26" width="4" height="4"/>
    <rect class="cls-3" x="40" y="30" width="4" height="4"/>
    <rect class="cls-3" x="44" y="30" width="4" height="4"/>
    <rect class="cls-3" x="48" y="30" width="4" height="4"/>
    <rect class="cls-1" x="56" y="30" width="4" height="4"/>
    <rect class="cls-5" x="40" y="34" width="4" height="4"/>
    <rect class="cls-3" x="44" y="34" width="4" height="4"/>
    <rect class="cls-3" x="48" y="34" width="4" height="4"/>
    <rect class="cls-7" x="52" y="14" width="4" height="4"/>
    <rect class="cls-7" x="52" y="18" width="4" height="4"/>
    <rect class="cls-7" x="52" y="22" width="4" height="4"/>
    <rect class="cls-7" x="52" y="26" width="4" height="4"/>
    <rect class="cls-7" x="52" y="30" width="4" height="4"/>
    <rect class="cls-7" x="52" y="34" width="4" height="4"/>
    <rect class="cls-1" x="56" y="34" width="4" height="4"/>
    <rect class="cls-3" x="20" y="38" width="4" height="4"/>
    <rect class="cls-1" x="56" y="38" width="4" height="4"/>
    <rect class="cls-8" x="56" y="42" width="4" height="4"/>
    <rect class="cls-3" x="44" y="38" width="4" height="4"/>
    <rect class="cls-7" x="48" y="38" width="4" height="4"/>
    <rect class="cls-1" x="52" y="38" width="4" height="4"/>
    <g>
      <rect class="cls-2" x="28" y="6" width="4" height="4"/>
      <rect class="cls-2" x="24" y="6" width="4" height="4"/>
      <rect class="cls-2" x="20" y="6" width="4" height="4"/>
      <rect class="cls-2" x="16" y="10" width="4" height="4"/>
      <rect class="cls-2" x="28" y="50" width="4" height="4"/>
      <rect class="cls-2" x="28" y="54" width="4" height="4"/>
      <rect class="cls-2" x="20" y="62" width="4" height="4"/>
      <rect class="cls-2" x="20" y="66" width="4" height="4"/>
      <rect class="cls-2" x="56" y="62" width="4" height="4"/>
      <rect class="cls-2" x="52" y="58" width="4" height="4"/>
      <rect class="cls-2" x="52" y="46" width="4" height="4"/>
      <rect class="cls-2" x="56" y="66" width="4" height="4"/>
      <rect class="cls-2" x="48" y="50" width="4" height="4"/>
      <rect class="cls-2" x="48" y="54" width="4" height="4"/>
      <rect class="cls-2" x="20" y="46" width="4" height="4"/>
      <rect class="cls-2" x="24" y="46" width="4" height="4"/>
      <rect class="cls-2" x="24" y="58" width="4" height="4"/>
      <rect class="cls-2" x="32" y="6" width="4" height="4"/>
      <rect class="cls-2" x="40" y="6" width="4" height="4"/>
      <rect class="cls-2" x="36" y="6" width="4" height="4"/>
      <rect class="cls-2" x="44" y="6" width="4" height="4"/>
      <rect class="cls-2" x="48" y="6" width="4" height="4"/>
      <rect class="cls-2" x="52" y="6" width="4" height="4"/>
      <rect class="cls-2" x="28" y="70" width="4" height="4"/>
      <rect class="cls-2" x="24" y="70" width="4" height="4"/>
      <rect class="cls-2" x="32" y="70" width="4" height="4"/>
      <rect class="cls-2" x="40" y="70" width="4" height="4"/>
      <rect class="cls-2" x="36" y="70" width="4" height="4"/>
      <rect class="cls-2" x="44" y="70" width="4" height="4"/>
      <rect class="cls-2" x="48" y="70" width="4" height="4"/>
      <rect class="cls-2" x="52" y="70" width="4" height="4"/>
      <rect class="cls-2" x="56" y="6" width="4" height="4"/>
      <rect class="cls-2" x="60" y="10" width="4" height="4"/>
      <rect class="cls-2" x="64" y="14" width="4" height="4"/>
      <rect class="cls-2" x="68" y="14" width="4" height="4"/>
      <rect class="cls-2" x="72" y="14" width="4" height="4"/>
      <g>
        <rect class="cls-8" x="28" y="10" width="4" height="4"/>
        <rect class="cls-8" x="24" y="10" width="4" height="4"/>
        <rect class="cls-8" x="20" y="10" width="4" height="4"/>
        <rect class="cls-8" x="32" y="10" width="4" height="4"/>
        <rect class="cls-8" x="40" y="10" width="4" height="4"/>
        <rect class="cls-8" x="36" y="10" width="4" height="4"/>
        <rect class="cls-8" x="44" y="10" width="4" height="4"/>
        <rect class="cls-8" x="48" y="10" width="4" height="4"/>
        <rect class="cls-8" x="52" y="10" width="4" height="4"/>
        <rect class="cls-8" x="56" y="10" width="4" height="4"/>
        <rect class="cls-8" x="16" y="14" width="4" height="4"/>
        <rect class="cls-8" x="60" y="14" width="4" height="4"/>
        <rect class="cls-8" x="12" y="34" width="4" height="4"/>
        <rect class="cls-8" x="8" y="34" width="4" height="4"/>
        <rect class="cls-8" x="60" y="18" width="4" height="4"/>
        <rect class="cls-8" x="64" y="18" width="4" height="4"/>
        <rect class="cls-8" x="68" y="18" width="4" height="4"/>
        <rect class="cls-8" x="72" y="18" width="4" height="4"/>
        <rect class="cls-8" x="72" y="22" width="4" height="4"/>
        <rect class="cls-8" x="72" y="26" width="4" height="4"/>
        <rect class="cls-8" x="72" y="30" width="4" height="4"/>
        <rect class="cls-8" x="68" y="34" width="4" height="4"/>
        <rect class="cls-8" x="64" y="34" width="4" height="4"/>
        <rect class="cls-8" x="60" y="22" width="4" height="4"/>
        <rect class="cls-8" x="60" y="26" width="4" height="4"/>
        <g>
          <rect class="cls-8" x="16" y="18" width="4" height="4"/>
          <rect class="cls-8" x="12" y="18" width="4" height="4"/>
          <rect class="cls-8" x="8" y="18" width="4" height="4"/>
          <rect class="cls-8" x="4" y="18" width="4" height="4"/>
          <rect class="cls-8" x="4" y="22" width="4" height="4"/>
          <rect class="cls-8" x="4" y="26" width="4" height="4"/>
          <rect class="cls-8" x="4" y="30" width="4" height="4"/>
          <rect class="cls-8" x="16" y="22" width="4" height="4"/>
          <rect class="cls-8" x="16" y="26" width="4" height="4"/>
          <rect class="cls-8" x="16" y="30" width="4" height="4"/>
        </g>
        <rect class="cls-8" x="60" y="30" width="4" height="4"/>
        <rect class="cls-8" x="16" y="34" width="4" height="4"/>
        <rect class="cls-8" x="24" y="42" width="4" height="4"/>
        <rect class="cls-8" x="28" y="46" width="4" height="4"/>
        <rect class="cls-8" x="32" y="50" width="4" height="4"/>
        <rect class="cls-8" x="60" y="34" width="4" height="4"/>
        <rect class="cls-8" x="52" y="42" width="4" height="4"/>
        <rect class="cls-8" x="48" y="46" width="4" height="4"/>
        <rect class="cls-8" x="44" y="50" width="4" height="4"/>
        <rect class="cls-8" x="32" y="54" width="4" height="4"/>
        <rect class="cls-8" x="44" y="54" width="4" height="4"/>
        <rect class="cls-8" x="28" y="58" width="4" height="4"/>
        <rect class="cls-8" x="24" y="62" width="4" height="4"/>
        <rect class="cls-8" x="48" y="58" width="4" height="4"/>
        <rect class="cls-8" x="36" y="66" width="4" height="4"/>
        <rect class="cls-8" x="40" y="66" width="4" height="4"/>
        <rect class="cls-8" x="32" y="66" width="4" height="4"/>
        <rect class="cls-8" x="28" y="66" width="4" height="4"/>
        <rect class="cls-8" x="44" y="66" width="4" height="4"/>
        <rect class="cls-8" x="48" y="66" width="4" height="4"/>
        <rect class="cls-8" x="52" y="62" width="4" height="4"/>
        <rect class="cls-8" x="24" y="66" width="4" height="4"/>
        <rect class="cls-8" x="52" y="66" width="4" height="4"/>
      </g>
      <rect class="cls-2" x="60" y="38" width="4" height="4"/>
      <rect class="cls-2" x="56" y="46" width="4" height="4"/>
      <rect class="cls-2" x="64" y="38" width="4" height="4"/>
      <rect class="cls-2" x="68" y="38" width="4" height="4"/>
      <rect class="cls-2" x="72" y="34" width="4" height="4"/>
      <rect class="cls-2" x="76" y="30" width="4" height="4"/>
      <rect class="cls-2" x="76" y="26" width="4" height="4"/>
      <rect class="cls-2" x="76" y="22" width="4" height="4"/>
      <rect class="cls-2" x="76" y="18" width="4" height="4"/>
      <g>
        <rect class="cls-2" x="12" y="14" width="4" height="4" transform="translate(28 32) rotate(-180)"/>
        <rect class="cls-2" x="8" y="14" width="4" height="4" transform="translate(20 32) rotate(-180)"/>
        <rect class="cls-2" x="4" y="14" width="4" height="4" transform="translate(12 32) rotate(-180)"/>
        <rect class="cls-2" x="16" y="38" width="4" height="4" transform="translate(36 80) rotate(-180)"/>
        <rect class="cls-2" x="12" y="38" width="4" height="4" transform="translate(28 80) rotate(-180)"/>
        <rect class="cls-2" x="8" y="38" width="4" height="4" transform="translate(20 80) rotate(-180)"/>
        <rect class="cls-2" x="4" y="34" width="4" height="4" transform="translate(12 72) rotate(-180)"/>
        <rect class="cls-2" x="0" y="30" width="4" height="4" transform="translate(4 64) rotate(-180)"/>
        <rect class="cls-2" x="0" y="26" width="4" height="4" transform="translate(4 56) rotate(-180)"/>
        <rect class="cls-2" x="0" y="22" width="4" height="4" transform="translate(4 48) rotate(-180)"/>
        <rect class="cls-2" x="0" y="18" width="4" height="4" transform="translate(4 40) rotate(-180)"/>
      </g>
    </g>
    <g>
      <rect class="cls-8" x="38" y="18" width="4" height="4"/>
      <rect class="cls-8" x="38" y="22" width="4" height="4"/>
      <rect class="cls-8" x="38" y="26" width="4" height="4"/>
      <rect class="cls-8" x="38" y="30" width="4" height="4"/>
      <rect class="cls-8" x="34" y="18" width="4" height="4"/>
      <rect class="cls-8" x="38" y="34" width="4" height="4"/>
      <rect class="cls-8" x="42" y="34" width="4" height="4"/>
      <rect class="cls-8" x="34" y="34" width="4" height="4"/>
    </g>
  </g>
  <rect class="cls-8" x="16" y="38" width="4" height="4"/>
  <rect class="cls-8" x="60" y="38" width="4" height="4"/>
</svg>