<?xml version="1.0" encoding="UTF-8"?>
<svg id="Layer_1" data-name="Layer 1" xmlns="http://www.w3.org/2000/svg" viewBox="0 0 440 128">
  <defs>
    <style>
      .cls-1 {
        fill: #f7dfe5;
      }

      .cls-2 {
        fill: #fffff8;
      }
    </style>
  </defs>
  <g>
    <rect class="cls-2" y="32" width="440" height="96"/>
    <rect class="cls-2" x="92" y="12" width="4" height="4"/>
    <rect class="cls-2" x="88" y="12" width="4" height="4"/>
    <rect class="cls-2" x="84" y="12" width="4" height="4"/>
    <rect class="cls-2" x="104" y="16" width="4" height="4"/>
    <rect class="cls-2" x="100" y="16" width="4" height="4"/>
    <rect class="cls-2" x="96" y="16" width="4" height="4"/>
    <rect class="cls-2" x="92" y="16" width="4" height="4"/>
    <rect class="cls-2" x="88" y="16" width="4" height="4"/>
    <rect class="cls-2" x="84" y="16" width="4" height="4"/>
    <rect class="cls-2" x="104" y="20" width="4" height="4"/>
    <rect class="cls-2" x="100" y="20" width="4" height="4"/>
    <rect class="cls-2" x="96" y="20" width="4" height="4"/>
    <rect class="cls-2" x="92" y="20" width="4" height="4"/>
    <rect class="cls-2" x="88" y="20" width="4" height="4"/>
    <rect class="cls-2" x="84" y="20" width="4" height="4"/>
    <rect class="cls-2" x="80" y="16" width="4" height="4"/>
    <rect class="cls-2" x="80" y="20" width="4" height="4"/>
    <rect class="cls-2" x="76" y="20" width="4" height="4"/>
    <rect class="cls-2" x="108" y="20" width="4" height="4"/>
    <rect class="cls-2" x="104" y="24" width="4" height="4"/>
    <rect class="cls-2" x="100" y="24" width="4" height="4"/>
    <rect class="cls-2" x="96" y="24" width="4" height="4"/>
    <rect class="cls-2" x="92" y="24" width="4" height="4"/>
    <rect class="cls-2" x="88" y="24" width="4" height="4"/>
    <rect class="cls-2" x="84" y="24" width="4" height="4"/>
    <rect class="cls-2" x="80" y="24" width="4" height="4"/>
    <rect class="cls-2" x="76" y="24" width="4" height="4"/>
    <rect class="cls-2" x="108" y="24" width="4" height="4"/>
    <rect class="cls-2" x="112" y="24" width="4" height="4"/>
    <rect class="cls-2" x="104" y="28" width="4" height="4"/>
    <rect class="cls-2" x="100" y="28" width="4" height="4"/>
    <rect class="cls-2" x="96" y="28" width="4" height="4"/>
    <rect class="cls-2" x="92" y="28" width="4" height="4"/>
    <rect class="cls-2" x="88" y="28" width="4" height="4"/>
    <rect class="cls-2" x="84" y="28" width="4" height="4"/>
    <rect class="cls-2" x="80" y="28" width="4" height="4"/>
    <rect class="cls-2" x="76" y="28" width="4" height="4"/>
    <rect class="cls-2" x="72" y="24" width="4" height="4"/>
    <rect class="cls-2" x="72" y="28" width="4" height="4"/>
    <rect class="cls-2" x="140" y="24" width="4" height="4"/>
    <rect class="cls-2" x="136" y="24" width="4" height="4"/>
    <rect class="cls-2" x="144" y="28" width="4" height="4"/>
    <rect class="cls-2" x="140" y="28" width="4" height="4"/>
    <rect class="cls-2" x="136" y="28" width="4" height="4"/>
    <rect class="cls-2" x="132" y="28" width="4" height="4"/>
    <rect class="cls-2" x="52" y="24" width="4" height="4"/>
    <rect class="cls-2" x="48" y="24" width="4" height="4"/>
    <rect class="cls-2" x="56" y="28" width="4" height="4"/>
    <rect class="cls-2" x="52" y="28" width="4" height="4"/>
    <rect class="cls-2" x="48" y="28" width="4" height="4"/>
    <rect class="cls-2" x="44" y="28" width="4" height="4"/>
    <rect class="cls-2" x="108" y="28" width="4" height="4"/>
    <rect class="cls-2" x="112" y="28" width="4" height="4"/>
    <rect class="cls-2" x="12" y="12" width="4" height="4"/>
    <rect class="cls-2" x="8" y="12" width="4" height="4"/>
    <rect class="cls-2" x="20" y="16" width="4" height="4"/>
    <rect class="cls-2" x="16" y="16" width="4" height="4"/>
    <rect class="cls-2" x="12" y="16" width="4" height="4"/>
    <rect class="cls-2" x="8" y="16" width="4" height="4"/>
    <rect class="cls-2" x="20" y="20" width="4" height="4"/>
    <rect class="cls-2" x="16" y="20" width="4" height="4"/>
    <rect class="cls-2" x="12" y="20" width="4" height="4"/>
    <rect class="cls-2" x="8" y="20" width="4" height="4"/>
    <rect class="cls-2" x="24" y="20" width="4" height="4"/>
    <rect class="cls-2" x="20" y="24" width="4" height="4"/>
    <rect class="cls-2" x="16" y="24" width="4" height="4"/>
    <rect class="cls-2" x="12" y="24" width="4" height="4"/>
    <rect class="cls-2" x="8" y="24" width="4" height="4"/>
    <rect class="cls-2" x="24" y="24" width="4" height="4"/>
    <rect class="cls-2" x="28" y="24" width="4" height="4"/>
    <rect class="cls-2" x="20" y="28" width="4" height="4"/>
    <rect class="cls-2" x="16" y="28" width="4" height="4"/>
    <rect class="cls-2" x="12" y="28" width="4" height="4"/>
    <rect class="cls-2" x="8" y="28" width="4" height="4"/>
    <rect class="cls-2" x="4" y="12" width="4" height="4"/>
    <rect class="cls-2" y="12" width="4" height="4"/>
    <rect class="cls-2" x="4" y="16" width="4" height="4"/>
    <rect class="cls-2" y="16" width="4" height="4"/>
    <rect class="cls-2" x="4" y="20" width="4" height="4"/>
    <rect class="cls-2" y="20" width="4" height="4"/>
    <rect class="cls-2" x="4" y="24" width="4" height="4"/>
    <rect class="cls-2" y="24" width="4" height="4"/>
    <rect class="cls-2" x="4" y="28" width="4" height="4"/>
    <rect class="cls-2" y="28" width="4" height="4"/>
    <rect class="cls-2" x="24" y="28" width="4" height="4"/>
    <rect class="cls-2" x="28" y="28" width="4" height="4"/>
    <rect class="cls-2" x="188" y="12" width="4" height="4"/>
    <rect class="cls-2" x="184" y="12" width="4" height="4"/>
    <rect class="cls-2" x="180" y="12" width="4" height="4"/>
    <rect class="cls-2" x="176" y="12" width="4" height="4"/>
    <rect class="cls-2" x="188" y="8" width="4" height="4"/>
    <rect class="cls-2" x="184" y="8" width="4" height="4"/>
    <rect class="cls-2" x="180" y="8" width="4" height="4"/>
    <rect class="cls-2" x="176" y="8" width="4" height="4"/>
    <rect class="cls-2" x="172" y="8" width="4" height="4"/>
    <rect class="cls-2" x="172" y="12" width="4" height="4"/>
    <rect class="cls-2" x="168" y="12" width="4" height="4"/>
    <rect class="cls-2" x="188" y="16" width="4" height="4"/>
    <rect class="cls-2" x="184" y="16" width="4" height="4"/>
    <rect class="cls-2" x="180" y="16" width="4" height="4"/>
    <rect class="cls-2" x="176" y="16" width="4" height="4"/>
    <rect class="cls-2" x="172" y="16" width="4" height="4"/>
    <rect class="cls-2" x="168" y="16" width="4" height="4"/>
    <rect class="cls-2" x="188" y="20" width="4" height="4"/>
    <rect class="cls-2" x="184" y="20" width="4" height="4"/>
    <rect class="cls-2" x="180" y="20" width="4" height="4"/>
    <rect class="cls-2" x="176" y="20" width="4" height="4"/>
    <rect class="cls-2" x="172" y="20" width="4" height="4"/>
    <rect class="cls-2" x="164" y="16" width="4" height="4"/>
    <rect class="cls-2" x="168" y="20" width="4" height="4"/>
    <rect class="cls-2" x="164" y="20" width="4" height="4"/>
    <rect class="cls-2" x="188" y="24" width="4" height="4"/>
    <rect class="cls-2" x="184" y="24" width="4" height="4"/>
    <rect class="cls-2" x="180" y="24" width="4" height="4"/>
    <rect class="cls-2" x="176" y="24" width="4" height="4"/>
    <rect class="cls-2" x="172" y="24" width="4" height="4"/>
    <rect class="cls-2" x="168" y="24" width="4" height="4"/>
    <rect class="cls-2" x="164" y="24" width="4" height="4"/>
    <rect class="cls-2" x="188" y="28" width="4" height="4"/>
    <rect class="cls-2" x="184" y="28" width="4" height="4"/>
    <rect class="cls-2" x="180" y="28" width="4" height="4"/>
    <rect class="cls-2" x="188" y="4" width="4" height="4"/>
    <rect class="cls-2" x="184" y="4" width="4" height="4"/>
    <rect class="cls-2" x="180" y="4" width="4" height="4"/>
    <rect class="cls-2" x="176" y="4" width="4" height="4"/>
    <rect class="cls-2" x="176" y="28" width="4" height="4"/>
    <rect class="cls-2" x="172" y="28" width="4" height="4"/>
    <rect class="cls-2" x="168" y="28" width="4" height="4"/>
    <rect class="cls-2" x="164" y="28" width="4" height="4"/>
    <rect class="cls-2" x="160" y="24" width="4" height="4"/>
    <rect class="cls-2" x="160" y="28" width="4" height="4"/>
    <rect class="cls-2" x="200" y="12" width="4" height="4" transform="translate(404 28) rotate(-180)"/>
    <rect class="cls-2" x="204" y="12" width="4" height="4" transform="translate(412 28) rotate(-180)"/>
    <rect class="cls-2" x="208" y="12" width="4" height="4" transform="translate(420 28) rotate(-180)"/>
    <rect class="cls-2" x="212" y="12" width="4" height="4" transform="translate(428 28) rotate(-180)"/>
    <rect class="cls-2" x="200" y="8" width="4" height="4" transform="translate(404 20) rotate(-180)"/>
    <rect class="cls-2" x="204" y="8" width="4" height="4" transform="translate(412 20) rotate(-180)"/>
    <rect class="cls-2" x="208" y="8" width="4" height="4" transform="translate(420 20) rotate(-180)"/>
    <rect class="cls-2" x="200" y="16" width="4" height="4" transform="translate(404 36) rotate(-180)"/>
    <rect class="cls-2" x="204" y="16" width="4" height="4" transform="translate(412 36) rotate(-180)"/>
    <rect class="cls-2" x="208" y="16" width="4" height="4" transform="translate(420 36) rotate(-180)"/>
    <rect class="cls-2" x="212" y="16" width="4" height="4" transform="translate(428 36) rotate(-180)"/>
    <rect class="cls-2" x="216" y="16" width="4" height="4" transform="translate(436 36) rotate(-180)"/>
    <rect class="cls-2" x="200" y="20" width="4" height="4" transform="translate(404 44) rotate(-180)"/>
    <rect class="cls-2" x="204" y="20" width="4" height="4" transform="translate(412 44) rotate(-180)"/>
    <rect class="cls-2" x="208" y="20" width="4" height="4" transform="translate(420 44) rotate(-180)"/>
    <rect class="cls-2" x="212" y="20" width="4" height="4" transform="translate(428 44) rotate(-180)"/>
    <rect class="cls-2" x="216" y="20" width="4" height="4" transform="translate(436 44) rotate(-180)"/>
    <rect class="cls-2" x="200" y="24" width="4" height="4" transform="translate(404 52) rotate(-180)"/>
    <rect class="cls-2" x="204" y="24" width="4" height="4" transform="translate(412 52) rotate(-180)"/>
    <rect class="cls-2" x="208" y="24" width="4" height="4" transform="translate(420 52) rotate(-180)"/>
    <rect class="cls-2" x="212" y="24" width="4" height="4" transform="translate(428 52) rotate(-180)"/>
    <rect class="cls-2" x="216" y="24" width="4" height="4" transform="translate(436 52) rotate(-180)"/>
    <rect class="cls-2" x="220" y="24" width="4" height="4" transform="translate(444 52) rotate(-180)"/>
    <rect class="cls-2" x="200" y="28" width="4" height="4" transform="translate(404 60) rotate(-180)"/>
    <rect class="cls-2" x="204" y="28" width="4" height="4" transform="translate(412 60) rotate(-180)"/>
    <rect class="cls-2" x="208" y="28" width="4" height="4" transform="translate(420 60) rotate(-180)"/>
    <rect class="cls-2" x="200" y="4" width="4" height="4" transform="translate(404 12) rotate(-180)"/>
    <rect class="cls-2" x="204" y="4" width="4" height="4" transform="translate(412 12) rotate(-180)"/>
    <rect class="cls-2" x="192" y="12" width="4" height="4" transform="translate(388 28) rotate(-180)"/>
    <rect class="cls-2" x="196" y="12" width="4" height="4" transform="translate(396 28) rotate(-180)"/>
    <rect class="cls-2" x="192" y="8" width="4" height="4" transform="translate(388 20) rotate(-180)"/>
    <rect class="cls-2" x="196" y="8" width="4" height="4" transform="translate(396 20) rotate(-180)"/>
    <rect class="cls-2" x="192" y="16" width="4" height="4" transform="translate(388 36) rotate(-180)"/>
    <rect class="cls-2" x="196" y="16" width="4" height="4" transform="translate(396 36) rotate(-180)"/>
    <rect class="cls-2" x="192" y="20" width="4" height="4" transform="translate(388 44) rotate(-180)"/>
    <rect class="cls-2" x="196" y="20" width="4" height="4" transform="translate(396 44) rotate(-180)"/>
    <rect class="cls-2" x="192" y="24" width="4" height="4" transform="translate(388 52) rotate(-180)"/>
    <rect class="cls-2" x="196" y="24" width="4" height="4" transform="translate(396 52) rotate(-180)"/>
    <rect class="cls-2" x="192" y="28" width="4" height="4" transform="translate(388 60) rotate(-180)"/>
    <rect class="cls-2" x="196" y="28" width="4" height="4" transform="translate(396 60) rotate(-180)"/>
    <rect class="cls-2" x="192" y="4" width="4" height="4" transform="translate(388 12) rotate(-180)"/>
    <rect class="cls-2" x="196" y="4" width="4" height="4" transform="translate(396 12) rotate(-180)"/>
    <rect class="cls-2" x="188" width="4" height="4"/>
    <rect class="cls-2" x="184" width="4" height="4"/>
    <rect class="cls-2" x="180" y="4" width="8" height="4"/>
    <rect class="cls-2" x="192" y="0" width="4" height="4" transform="translate(388 4) rotate(-180)"/>
    <rect class="cls-2" x="212" y="28" width="4" height="4" transform="translate(428 60) rotate(-180)"/>
    <rect class="cls-2" x="216" y="28" width="4" height="4" transform="translate(436 60) rotate(-180)"/>
    <rect class="cls-2" x="220" y="28" width="4" height="4" transform="translate(444 60) rotate(-180)"/>
    <rect class="cls-2" x="268" y="12" width="4" height="4"/>
    <rect class="cls-2" x="264" y="12" width="4" height="4"/>
    <rect class="cls-2" x="260" y="12" width="4" height="4"/>
    <rect class="cls-2" x="256" y="12" width="4" height="4"/>
    <rect class="cls-2" x="276" y="16" width="4" height="4"/>
    <rect class="cls-2" x="272" y="16" width="4" height="4"/>
    <rect class="cls-2" x="268" y="16" width="4" height="4"/>
    <rect class="cls-2" x="264" y="16" width="4" height="4"/>
    <rect class="cls-2" x="260" y="16" width="4" height="4"/>
    <rect class="cls-2" x="256" y="16" width="4" height="4"/>
    <rect class="cls-2" x="276" y="20" width="4" height="4"/>
    <rect class="cls-2" x="272" y="20" width="4" height="4"/>
    <rect class="cls-2" x="268" y="20" width="4" height="4"/>
    <rect class="cls-2" x="264" y="20" width="4" height="4"/>
    <rect class="cls-2" x="260" y="20" width="4" height="4"/>
    <rect class="cls-2" x="256" y="20" width="4" height="4"/>
    <rect class="cls-2" x="252" y="16" width="4" height="4"/>
    <rect class="cls-2" x="252" y="20" width="4" height="4"/>
    <rect class="cls-2" x="248" y="20" width="4" height="4"/>
    <rect class="cls-2" x="280" y="20" width="4" height="4"/>
    <rect class="cls-2" x="276" y="24" width="4" height="4"/>
    <rect class="cls-2" x="272" y="24" width="4" height="4"/>
    <rect class="cls-2" x="268" y="24" width="4" height="4"/>
    <rect class="cls-2" x="264" y="24" width="4" height="4"/>
    <rect class="cls-2" x="260" y="24" width="4" height="4"/>
    <rect class="cls-2" x="256" y="24" width="4" height="4"/>
    <rect class="cls-2" x="252" y="24" width="4" height="4"/>
    <rect class="cls-2" x="248" y="24" width="4" height="4"/>
    <rect class="cls-2" x="280" y="24" width="4" height="4"/>
    <rect class="cls-2" x="284" y="24" width="4" height="4"/>
    <rect class="cls-2" x="276" y="28" width="4" height="4"/>
    <rect class="cls-2" x="272" y="28" width="4" height="4"/>
    <rect class="cls-2" x="268" y="28" width="4" height="4"/>
    <rect class="cls-2" x="264" y="28" width="4" height="4"/>
    <rect class="cls-2" x="260" y="28" width="4" height="4"/>
    <rect class="cls-2" x="256" y="28" width="4" height="4"/>
    <rect class="cls-2" x="252" y="28" width="4" height="4"/>
    <rect class="cls-2" x="248" y="28" width="4" height="4"/>
    <rect class="cls-2" x="244" y="24" width="4" height="4"/>
    <rect class="cls-2" x="244" y="28" width="4" height="4"/>
    <rect class="cls-2" x="316" y="24" width="4" height="4"/>
    <rect class="cls-2" x="312" y="24" width="4" height="4"/>
    <rect class="cls-2" x="320" y="28" width="4" height="4"/>
    <rect class="cls-1" x="320" y="24" width="4" height="4"/>
    <rect class="cls-1" x="324" y="28" width="4" height="4"/>
    <rect class="cls-2" x="316" y="28" width="4" height="4"/>
    <rect class="cls-2" x="312" y="28" width="4" height="4"/>
    <rect class="cls-2" x="308" y="28" width="4" height="4"/>
    <rect class="cls-2" x="416" y="24" width="4" height="4"/>
    <rect class="cls-2" x="412" y="24" width="4" height="4"/>
    <rect class="cls-2" x="420" y="28" width="4" height="4"/>
    <rect class="cls-1" x="420" y="24" width="4" height="4"/>
    <rect class="cls-1" x="424" y="28" width="4" height="4"/>
    <rect class="cls-2" x="416" y="28" width="4" height="4"/>
    <rect class="cls-2" x="412" y="28" width="4" height="4"/>
    <rect class="cls-2" x="408" y="28" width="4" height="4"/>
    <rect class="cls-2" x="436" y="24" width="4" height="4"/>
    <rect class="cls-2" x="436" y="28" width="4" height="4"/>
    <rect class="cls-2" x="432" y="28" width="4" height="4"/>
    <rect class="cls-2" x="280" y="28" width="4" height="4"/>
    <rect class="cls-2" x="284" y="28" width="4" height="4"/>
    <g>
      <rect class="cls-2" x="360" y="12" width="4" height="4"/>
      <rect class="cls-2" x="356" y="12" width="4" height="4"/>
      <rect class="cls-2" x="352" y="12" width="4" height="4"/>
      <rect class="cls-2" x="348" y="12" width="4" height="4"/>
      <rect class="cls-2" x="360" y="8" width="4" height="4"/>
      <rect class="cls-2" x="356" y="8" width="4" height="4"/>
      <rect class="cls-2" x="352" y="8" width="4" height="4"/>
      <rect class="cls-2" x="348" y="8" width="4" height="4"/>
      <rect class="cls-2" x="344" y="8" width="4" height="4"/>
      <rect class="cls-2" x="344" y="12" width="4" height="4"/>
      <rect class="cls-2" x="340" y="12" width="4" height="4"/>
      <rect class="cls-2" x="360" y="16" width="4" height="4"/>
      <rect class="cls-2" x="356" y="16" width="4" height="4"/>
      <rect class="cls-2" x="352" y="16" width="4" height="4"/>
      <rect class="cls-2" x="348" y="16" width="4" height="4"/>
      <rect class="cls-2" x="344" y="16" width="4" height="4"/>
      <rect class="cls-2" x="340" y="16" width="4" height="4"/>
      <rect class="cls-2" x="360" y="20" width="4" height="4"/>
      <rect class="cls-2" x="356" y="20" width="4" height="4"/>
      <rect class="cls-2" x="352" y="20" width="4" height="4"/>
      <rect class="cls-2" x="348" y="20" width="4" height="4"/>
      <rect class="cls-2" x="344" y="20" width="4" height="4"/>
      <rect class="cls-2" x="336" y="16" width="4" height="4"/>
      <rect class="cls-2" x="340" y="20" width="4" height="4"/>
      <rect class="cls-2" x="336" y="20" width="4" height="4"/>
      <rect class="cls-2" x="360" y="24" width="4" height="4"/>
      <rect class="cls-2" x="356" y="24" width="4" height="4"/>
      <rect class="cls-2" x="352" y="24" width="4" height="4"/>
      <rect class="cls-2" x="348" y="24" width="4" height="4"/>
      <rect class="cls-2" x="344" y="24" width="4" height="4"/>
      <rect class="cls-2" x="340" y="24" width="4" height="4"/>
      <rect class="cls-2" x="336" y="24" width="4" height="4"/>
      <rect class="cls-2" x="360" y="28" width="4" height="4"/>
      <rect class="cls-2" x="356" y="28" width="4" height="4"/>
      <rect class="cls-2" x="352" y="28" width="4" height="4"/>
      <rect class="cls-2" x="360" y="4" width="4" height="4"/>
      <rect class="cls-2" x="356" y="4" width="4" height="4"/>
      <rect class="cls-2" x="352" y="4" width="4" height="4"/>
      <rect class="cls-2" x="348" y="28" width="4" height="4"/>
      <rect class="cls-2" x="344" y="28" width="4" height="4"/>
      <rect class="cls-2" x="340" y="28" width="4" height="4"/>
      <rect class="cls-2" x="336" y="28" width="4" height="4"/>
      <rect class="cls-2" x="332" y="24" width="4" height="4"/>
      <rect class="cls-2" x="332" y="28" width="4" height="4"/>
      <rect class="cls-2" x="372" y="12" width="4" height="4" transform="translate(748 28) rotate(-180)"/>
      <rect class="cls-2" x="376" y="12" width="4" height="4" transform="translate(756 28) rotate(-180)"/>
      <rect class="cls-2" x="380" y="12" width="4" height="4" transform="translate(764 28) rotate(-180)"/>
      <rect class="cls-2" x="384" y="12" width="4" height="4" transform="translate(772 28) rotate(-180)"/>
      <rect class="cls-2" x="372" y="8" width="4" height="4" transform="translate(748 20) rotate(-180)"/>
      <rect class="cls-2" x="376" y="8" width="4" height="4" transform="translate(756 20) rotate(-180)"/>
      <rect class="cls-2" x="380" y="8" width="4" height="4" transform="translate(764 20) rotate(-180)"/>
      <rect class="cls-2" x="372" y="16" width="4" height="4" transform="translate(748 36) rotate(-180)"/>
      <rect class="cls-2" x="376" y="16" width="4" height="4" transform="translate(756 36) rotate(-180)"/>
      <rect class="cls-2" x="380" y="16" width="4" height="4" transform="translate(764 36) rotate(-180)"/>
      <rect class="cls-2" x="384" y="16" width="4" height="4" transform="translate(772 36) rotate(-180)"/>
      <rect class="cls-2" x="388" y="16" width="4" height="4" transform="translate(780 36) rotate(-180)"/>
      <rect class="cls-2" x="372" y="20" width="4" height="4" transform="translate(748 44) rotate(-180)"/>
      <rect class="cls-2" x="376" y="20" width="4" height="4" transform="translate(756 44) rotate(-180)"/>
      <rect class="cls-2" x="380" y="20" width="4" height="4" transform="translate(764 44) rotate(-180)"/>
      <rect class="cls-2" x="384" y="20" width="4" height="4" transform="translate(772 44) rotate(-180)"/>
      <rect class="cls-2" x="388" y="20" width="4" height="4" transform="translate(780 44) rotate(-180)"/>
      <rect class="cls-2" x="372" y="24" width="4" height="4" transform="translate(748 52) rotate(-180)"/>
      <rect class="cls-2" x="376" y="24" width="4" height="4" transform="translate(756 52) rotate(-180)"/>
      <rect class="cls-2" x="380" y="24" width="4" height="4" transform="translate(764 52) rotate(-180)"/>
      <rect class="cls-2" x="384" y="24" width="4" height="4" transform="translate(772 52) rotate(-180)"/>
      <rect class="cls-2" x="388" y="24" width="4" height="4" transform="translate(780 52) rotate(-180)"/>
      <rect class="cls-2" x="392" y="24" width="4" height="4" transform="translate(788 52) rotate(-180)"/>
      <rect class="cls-2" x="372" y="28" width="4" height="4" transform="translate(748 60) rotate(-180)"/>
      <rect class="cls-2" x="376" y="28" width="4" height="4" transform="translate(756 60) rotate(-180)"/>
      <rect class="cls-2" x="380" y="28" width="4" height="4" transform="translate(764 60) rotate(-180)"/>
      <rect class="cls-2" x="372" y="4" width="4" height="4" transform="translate(748 12) rotate(-180)"/>
      <rect class="cls-2" x="364" y="12" width="4" height="4" transform="translate(732 28) rotate(-180)"/>
      <rect class="cls-2" x="368" y="12" width="4" height="4" transform="translate(740 28) rotate(-180)"/>
      <rect class="cls-2" x="364" y="8" width="4" height="4" transform="translate(732 20) rotate(-180)"/>
      <rect class="cls-2" x="368" y="8" width="4" height="4" transform="translate(740 20) rotate(-180)"/>
      <rect class="cls-2" x="364" y="16" width="4" height="4" transform="translate(732 36) rotate(-180)"/>
      <rect class="cls-2" x="368" y="16" width="4" height="4" transform="translate(740 36) rotate(-180)"/>
      <rect class="cls-2" x="364" y="20" width="4" height="4" transform="translate(732 44) rotate(-180)"/>
      <rect class="cls-2" x="368" y="20" width="4" height="4" transform="translate(740 44) rotate(-180)"/>
      <rect class="cls-2" x="364" y="24" width="4" height="4" transform="translate(732 52) rotate(-180)"/>
      <rect class="cls-2" x="368" y="24" width="4" height="4" transform="translate(740 52) rotate(-180)"/>
      <rect class="cls-2" x="364" y="28" width="4" height="4" transform="translate(732 60) rotate(-180)"/>
      <rect class="cls-2" x="368" y="28" width="4" height="4" transform="translate(740 60) rotate(-180)"/>
      <rect class="cls-2" x="364" y="4" width="4" height="4" transform="translate(732 12) rotate(-180)"/>
      <rect class="cls-2" x="368" y="4" width="4" height="4" transform="translate(740 12) rotate(-180)"/>
      <rect class="cls-2" x="384" y="28" width="4" height="4" transform="translate(772 60) rotate(-180)"/>
      <rect class="cls-2" x="388" y="28" width="4" height="4" transform="translate(780 60) rotate(-180)"/>
      <rect class="cls-2" x="392" y="28" width="4" height="4" transform="translate(788 60) rotate(-180)"/>
      <g>
        <rect class="cls-1" x="388" y="12" width="4" height="4" transform="translate(780 28) rotate(-180)"/>
        <rect class="cls-1" x="392" y="12" width="4" height="4" transform="translate(788 28) rotate(-180)"/>
        <rect class="cls-1" x="384" y="8" width="4" height="4" transform="translate(772 20) rotate(-180)"/>
        <rect class="cls-1" x="388" y="8" width="4" height="4" transform="translate(780 20) rotate(-180)"/>
        <rect class="cls-1" x="392" y="16" width="4" height="4" transform="translate(788 36) rotate(-180)"/>
        <rect class="cls-1" x="396" y="16" width="4" height="4" transform="translate(796 36) rotate(-180)"/>
        <rect class="cls-1" x="392" y="20" width="4" height="4" transform="translate(788 44) rotate(-180)"/>
        <rect class="cls-1" x="396" y="20" width="4" height="4" transform="translate(796 44) rotate(-180)"/>
        <rect class="cls-1" x="396" y="24" width="4" height="4" transform="translate(796 52) rotate(-180)"/>
        <rect class="cls-1" x="400" y="24" width="4" height="4" transform="translate(804 52) rotate(-180)"/>
        <rect class="cls-1" x="380" y="4" width="4" height="4" transform="translate(764 12) rotate(-180)"/>
        <rect class="cls-1" x="376" y="4" width="4" height="4" transform="translate(756 12) rotate(-180)"/>
        <rect class="cls-1" x="396" y="28" width="4" height="4" transform="translate(796 60) rotate(-180)"/>
        <rect class="cls-1" x="400" y="28" width="4" height="4" transform="translate(804 60) rotate(-180)"/>
      </g>
    </g>
    <rect class="cls-2" x="108" y="16" width="4" height="4"/>
    <rect class="cls-1" x="112" y="16" width="4" height="4"/>
    <rect class="cls-1" x="108" y="12" width="4" height="4"/>
    <rect class="cls-2" x="104" y="12" width="4" height="4"/>
    <rect class="cls-2" x="100" y="12" width="4" height="4"/>
    <rect class="cls-2" x="96" y="12" width="4" height="4"/>
    <rect class="cls-2" x="112" y="20" width="4" height="4"/>
    <rect class="cls-1" x="116" y="20" width="4" height="4"/>
    <rect class="cls-2" x="116" y="24" width="4" height="4"/>
    <rect class="cls-2" x="144" y="24" width="4" height="4"/>
    <rect class="cls-2" x="148" y="28" width="4" height="4"/>
    <rect class="cls-1" x="148" y="24" width="4" height="4"/>
    <rect class="cls-1" x="152" y="28" width="4" height="4"/>
    <rect class="cls-2" x="56" y="24" width="4" height="4"/>
    <rect class="cls-2" x="60" y="28" width="4" height="4"/>
    <rect class="cls-1" x="60" y="24" width="4" height="4"/>
    <rect class="cls-1" x="64" y="28" width="4" height="4"/>
    <rect class="cls-2" x="116" y="28" width="4" height="4"/>
    <rect class="cls-1" x="120" y="24" width="4" height="4"/>
    <rect class="cls-1" x="120" y="28" width="4" height="4"/>
    <rect class="cls-1" x="116" y="16" width="4" height="4"/>
    <rect class="cls-1" x="112" y="12" width="4" height="4"/>
    <rect class="cls-1" x="120" y="20" width="4" height="4"/>
    <rect class="cls-1" x="124" y="24" width="4" height="4"/>
    <rect class="cls-1" x="124" y="28" width="4" height="4"/>
    <g>
      <rect class="cls-1" x="24" y="16" width="4" height="4"/>
      <rect class="cls-1" x="28" y="16" width="4" height="4"/>
      <rect class="cls-1" x="24" y="12" width="4" height="4"/>
      <rect class="cls-1" x="20" y="12" width="4" height="4"/>
      <rect class="cls-1" x="16" y="12" width="4" height="4"/>
      <rect class="cls-1" x="28" y="20" width="4" height="4"/>
      <rect class="cls-1" x="32" y="20" width="4" height="4"/>
      <rect class="cls-1" x="32" y="24" width="4" height="4"/>
      <rect class="cls-1" x="32" y="28" width="4" height="4"/>
      <rect class="cls-1" x="36" y="24" width="4" height="4"/>
      <rect class="cls-1" x="36" y="28" width="4" height="4"/>
    </g>
    <g>
      <rect class="cls-2" x="212" y="8" width="4" height="4" transform="translate(428 20) rotate(-180)"/>
      <rect class="cls-2" x="216" y="8" width="4" height="4" transform="translate(436 20) rotate(-180)"/>
      <rect class="cls-2" x="216" y="12" width="4" height="4" transform="translate(436 28) rotate(-180)"/>
      <rect class="cls-2" x="220" y="12" width="4" height="4" transform="translate(444 28) rotate(-180)"/>
      <rect class="cls-2" x="220" y="16" width="4" height="4" transform="translate(444 36) rotate(-180)"/>
      <rect class="cls-2" x="224" y="16" width="4" height="4" transform="translate(452 36) rotate(-180)"/>
      <rect class="cls-2" x="220" y="20" width="4" height="4" transform="translate(444 44) rotate(-180)"/>
      <rect class="cls-2" x="224" y="20" width="4" height="4" transform="translate(452 44) rotate(-180)"/>
      <rect class="cls-2" x="224" y="24" width="4" height="4" transform="translate(452 52) rotate(-180)"/>
      <rect class="cls-2" x="208" y="4" width="4" height="4" transform="translate(420 12) rotate(-180)"/>
      <rect class="cls-2" x="200" y="0" width="4" height="4" transform="translate(404 4) rotate(-180)"/>
      <rect class="cls-2" x="204" y="0" width="4" height="4" transform="translate(412 4) rotate(-180)"/>
      <rect class="cls-1" x="208" y="0" width="4" height="4" transform="translate(420 4) rotate(-180)"/>
      <rect class="cls-1" x="212" y="0" width="4" height="4" transform="translate(428 4) rotate(-180)"/>
      <rect class="cls-2" x="196" y="0" width="4" height="4" transform="translate(396 4) rotate(-180)"/>
      <rect class="cls-2" x="212" y="4" width="4" height="4" transform="translate(428 12) rotate(-180)"/>
      <rect class="cls-1" x="216" y="4" width="4" height="4" transform="translate(436 12) rotate(-180)"/>
      <rect class="cls-1" x="220" y="4" width="4" height="4" transform="translate(444 12) rotate(-180)"/>
      <rect class="cls-2" x="224" y="28" width="4" height="4" transform="translate(452 60) rotate(-180)"/>
      <rect class="cls-2" x="228" y="24" width="4" height="4" transform="translate(460 52) rotate(-180)"/>
      <rect class="cls-2" x="228" y="28" width="4" height="4" transform="translate(460 60) rotate(-180)"/>
      <rect class="cls-1" x="220" y="8" width="4" height="4" transform="translate(444 20) rotate(-180)"/>
      <rect class="cls-1" x="224" y="8" width="4" height="4" transform="translate(452 20) rotate(-180)"/>
      <rect class="cls-1" x="224" y="12" width="4" height="4" transform="translate(452 28) rotate(-180)"/>
      <rect class="cls-1" x="228" y="12" width="4" height="4" transform="translate(460 28) rotate(-180)"/>
      <rect class="cls-1" x="228" y="16" width="4" height="4" transform="translate(460 36) rotate(-180)"/>
      <rect class="cls-1" x="232" y="16" width="4" height="4" transform="translate(468 36) rotate(-180)"/>
      <rect class="cls-1" x="228" y="20" width="4" height="4" transform="translate(460 44) rotate(-180)"/>
      <rect class="cls-1" x="232" y="20" width="4" height="4" transform="translate(468 44) rotate(-180)"/>
      <rect class="cls-1" x="232" y="24" width="4" height="4" transform="translate(468 52) rotate(-180)"/>
      <rect class="cls-1" x="232" y="28" width="4" height="4" transform="translate(468 60) rotate(-180)"/>
      <rect class="cls-1" x="236" y="24" width="4" height="4" transform="translate(476 52) rotate(-180)"/>
      <rect class="cls-1" x="236" y="28" width="4" height="4" transform="translate(476 60) rotate(-180)"/>
    </g>
    <rect class="cls-2" x="280" y="16" width="4" height="4"/>
    <rect class="cls-2" x="284" y="16" width="4" height="4"/>
    <rect class="cls-2" x="280" y="12" width="4" height="4"/>
    <rect class="cls-2" x="276" y="12" width="4" height="4"/>
    <rect class="cls-2" x="272" y="12" width="4" height="4"/>
    <rect class="cls-2" x="284" y="20" width="4" height="4"/>
    <rect class="cls-2" x="288" y="20" width="4" height="4"/>
    <rect class="cls-2" x="288" y="24" width="4" height="4"/>
    <rect class="cls-2" x="288" y="28" width="4" height="4"/>
    <rect class="cls-2" x="292" y="24" width="4" height="4"/>
    <rect class="cls-2" x="292" y="28" width="4" height="4"/>
  </g>
  <g>
    <rect class="cls-1" x="288" y="16" width="4" height="4"/>
    <rect class="cls-1" x="292" y="16" width="4" height="4"/>
    <rect class="cls-1" x="288" y="12" width="4" height="4"/>
    <rect class="cls-1" x="284" y="12" width="4" height="4"/>
    <rect class="cls-1" x="292" y="20" width="4" height="4"/>
    <rect class="cls-1" x="296" y="20" width="4" height="4"/>
    <rect class="cls-1" x="296" y="24" width="4" height="4"/>
    <rect class="cls-1" x="296" y="28" width="4" height="4"/>
    <rect class="cls-1" x="300" y="24" width="4" height="4"/>
    <rect class="cls-1" x="300" y="28" width="4" height="4"/>
  </g>
</svg>