<?xml version="1.0" encoding="UTF-8"?>
<svg id="Layer_1" data-name="Layer 1" xmlns="http://www.w3.org/2000/svg" viewBox="0 0 80 80">
  <defs>
    <style>
      .cls-1 {
        fill: #f4ae16;
      }

      .cls-2 {
        fill: #fff;
      }

      .cls-3 {
        fill: #ffe180;
      }

      .cls-4 {
        fill: #ffedb6;
      }

      .cls-5 {
        fill: #fff8f0;
      }

      .cls-6 {
        fill: #ffc64a;
      }

      .cls-7 {
        fill: #ffd53e;
      }

      .cls-8 {
        fill: #e5eef4;
      }

      .cls-9 {
        fill: #beced8;
      }

      .cls-10 {
        fill: #dae3ea;
      }

      .cls-11 {
        fill: #5b3a09;
      }

      .cls-12 {
        opacity: .4;
      }
    </style>
  </defs>
  <rect class="cls-2" width="80" height="80"/>
  <g class="cls-12">
    <g>
      <rect class="cls-3" x="26.03" y="38.01" width="4" height="4"/>
      <rect class="cls-4" x="30.03" y="38.01" width="4" height="4"/>
      <rect class="cls-4" x="18.03" y="38.01" width="4" height="4"/>
      <rect class="cls-3" x="14.03" y="38.01" width="4" height="4"/>
      <rect class="cls-5" x="22.03" y="38.01" width="4" height="4"/>
      <rect class="cls-3" x="34.03" y="38.01" width="4" height="4"/>
      <rect class="cls-3" x="38.03" y="38.01" width="4" height="4"/>
      <rect class="cls-3" x="42.03" y="38.01" width="4" height="4"/>
      <rect class="cls-3" x="46.03" y="38.01" width="4" height="4"/>
      <rect class="cls-3" x="50.03" y="38.01" width="4" height="4"/>
      <rect class="cls-3" x="54.03" y="38.01" width="4" height="4"/>
      <rect class="cls-7" x="58.03" y="38.01" width="4" height="4"/>
      <rect class="cls-1" x="62.03" y="38.01" width="4" height="4"/>
      <rect class="cls-4" x="26.03" y="34.01" width="4" height="4"/>
      <rect class="cls-3" x="30.03" y="34.01" width="4" height="4"/>
      <rect class="cls-3" x="18.03" y="34.01" width="4" height="4"/>
      <rect class="cls-3" x="14.03" y="34.01" width="4" height="4"/>
      <rect class="cls-4" x="22.03" y="34.01" width="4" height="4"/>
      <rect class="cls-3" x="34.03" y="34.01" width="4" height="4"/>
      <rect class="cls-3" x="38.03" y="34.01" width="4" height="4"/>
      <rect class="cls-3" x="42.03" y="34.01" width="4" height="4"/>
      <rect class="cls-3" x="46.03" y="34.01" width="4" height="4"/>
      <rect class="cls-3" x="50.03" y="34.01" width="4" height="4"/>
      <rect class="cls-7" x="54.03" y="34.01" width="4" height="4"/>
      <rect class="cls-7" x="58.03" y="34.01" width="4" height="4"/>
      <rect class="cls-1" x="62.03" y="34.01" width="4" height="4"/>
      <rect class="cls-5" x="26.03" y="42.01" width="4" height="4"/>
      <rect class="cls-4" x="30.03" y="42.01" width="4" height="4"/>
      <rect class="cls-4" x="18.03" y="42.01" width="4" height="4"/>
      <rect class="cls-3" x="14.03" y="42.01" width="4" height="4"/>
      <rect class="cls-5" x="22.03" y="42.01" width="4" height="4"/>
      <rect class="cls-7" x="34.03" y="42.01" width="4" height="4"/>
      <rect class="cls-7" x="38.03" y="42.01" width="4" height="4"/>
      <rect class="cls-3" x="42.03" y="42.01" width="4" height="4"/>
      <rect class="cls-3" x="46.03" y="42.01" width="4" height="4"/>
      <rect class="cls-3" x="50.03" y="42.01" width="4" height="4"/>
      <rect class="cls-3" x="54.03" y="42.01" width="4" height="4"/>
      <rect class="cls-7" x="58.03" y="42.01" width="4" height="4"/>
      <rect class="cls-1" x="62.03" y="42.01" width="4" height="4"/>
      <rect class="cls-5" x="26" y="38" width="4" height="4"/>
      <rect class="cls-3" x="30.03" y="46.01" width="4" height="4"/>
      <rect class="cls-3" x="18.03" y="46.01" width="4" height="4"/>
      <rect class="cls-3" x="14" y="38" width="4" height="4"/>
      <rect class="cls-4" x="22.03" y="46.01" width="4" height="4"/>
      <rect class="cls-7" x="34.03" y="46.01" width="4" height="4"/>
      <rect class="cls-6" x="38.03" y="46.01" width="4" height="4"/>
      <rect class="cls-3" x="42.03" y="46.01" width="4" height="4"/>
      <rect class="cls-3" x="46.03" y="46.01" width="4" height="4"/>
      <rect class="cls-3" x="50.03" y="46.01" width="4" height="4"/>
      <rect class="cls-3" x="54.03" y="46.01" width="4" height="4"/>
      <rect class="cls-7" x="58.03" y="46.01" width="4" height="4"/>
      <rect class="cls-1" x="62.03" y="46.01" width="4" height="4"/>
      <rect class="cls-3" x="26.03" y="58.01" width="4" height="4"/>
      <rect class="cls-3" x="30.03" y="58.01" width="4" height="4"/>
      <rect class="cls-3" x="18.03" y="58.01" width="4" height="4"/>
      <rect class="cls-7" x="14.03" y="58.01" width="4" height="4"/>
      <rect class="cls-3" x="22.03" y="58.01" width="4" height="4"/>
      <rect class="cls-3" x="34.03" y="58.01" width="4" height="4"/>
      <rect class="cls-3" x="38.03" y="58.01" width="4" height="4"/>
      <rect class="cls-3" x="42.03" y="58.01" width="4" height="4"/>
      <rect class="cls-3" x="46.03" y="58.01" width="4" height="4"/>
      <rect class="cls-3" x="50.03" y="58.01" width="4" height="4"/>
      <rect class="cls-3" x="54.03" y="58.01" width="4" height="4"/>
      <rect class="cls-7" x="58.03" y="58.01" width="4" height="4"/>
      <rect class="cls-1" x="62.03" y="58.01" width="4" height="4"/>
      <rect class="cls-3" x="26.03" y="54.01" width="4" height="4"/>
      <rect class="cls-3" x="30.03" y="54.01" width="4" height="4"/>
      <rect class="cls-3" x="18.03" y="54.01" width="4" height="4"/>
      <rect class="cls-3" x="14.03" y="54.01" width="4" height="4"/>
      <rect class="cls-3" x="26.03" y="50.01" width="4" height="4"/>
      <rect class="cls-3" x="14.03" y="50.01" width="4" height="4"/>
      <rect class="cls-3" x="22.03" y="54.01" width="4" height="4"/>
      <rect class="cls-7" x="34.03" y="54.01" width="4" height="4"/>
      <rect class="cls-3" x="38.03" y="54.01" width="4" height="4"/>
      <rect class="cls-3" x="42.03" y="54.01" width="4" height="4"/>
      <rect class="cls-3" x="46.03" y="54.01" width="4" height="4"/>
      <rect class="cls-3" x="50.03" y="54.01" width="4" height="4"/>
      <rect class="cls-3" x="54.03" y="54.01" width="4" height="4"/>
      <rect class="cls-7" x="58.03" y="54.01" width="4" height="4"/>
      <rect class="cls-1" x="62.03" y="54.01" width="4" height="4"/>
      <rect class="cls-4" x="26.03" y="46.01" width="4" height="4"/>
      <rect class="cls-3" x="30.03" y="50.01" width="4" height="4"/>
      <rect class="cls-3" x="18.03" y="50.01" width="4" height="4"/>
      <rect class="cls-3" x="14.03" y="46.01" width="4" height="4"/>
      <rect class="cls-3" x="22.03" y="50.01" width="4" height="4"/>
      <rect class="cls-7" x="34.03" y="50.01" width="4" height="4"/>
      <rect class="cls-3" x="38.03" y="50.01" width="4" height="4"/>
      <rect class="cls-3" x="42.03" y="50.01" width="4" height="4"/>
      <rect class="cls-3" x="46.03" y="50.01" width="4" height="4"/>
      <rect class="cls-3" x="50.03" y="50.01" width="4" height="4"/>
      <rect class="cls-3" x="54.03" y="50.01" width="4" height="4"/>
      <rect class="cls-7" x="58.03" y="50.01" width="4" height="4"/>
      <rect class="cls-1" x="62.03" y="50.01" width="4" height="4"/>
      <rect class="cls-7" x="26.03" y="62.01" width="4" height="4"/>
      <rect class="cls-7" x="30.03" y="62.01" width="4" height="4"/>
      <rect class="cls-7" x="18.03" y="62.01" width="4" height="4"/>
      <rect class="cls-7" x="14.03" y="62.01" width="4" height="4"/>
      <rect class="cls-7" x="22.03" y="62.01" width="4" height="4"/>
      <rect class="cls-7" x="34.03" y="62.01" width="4" height="4"/>
      <rect class="cls-7" x="38.03" y="62.01" width="4" height="4"/>
      <rect class="cls-7" x="42.03" y="62.01" width="4" height="4"/>
      <rect class="cls-7" x="46.03" y="62.01" width="4" height="4"/>
      <rect class="cls-7" x="50.03" y="62.01" width="4" height="4"/>
      <rect class="cls-7" x="54.03" y="62.01" width="4" height="4"/>
      <rect class="cls-1" x="58.03" y="62.01" width="4" height="4"/>
      <rect class="cls-1" x="62.03" y="62.01" width="4" height="4"/>
      <rect class="cls-1" x="26.03" y="66.01" width="4" height="4"/>
      <rect class="cls-1" x="30.03" y="66.01" width="4" height="4"/>
      <rect class="cls-1" x="18.03" y="66.01" width="4" height="4"/>
      <rect class="cls-1" x="14.03" y="66.01" width="4" height="4"/>
      <rect class="cls-1" x="22.03" y="66.01" width="4" height="4"/>
      <rect class="cls-1" x="34.03" y="66.01" width="4" height="4"/>
      <rect class="cls-1" x="38.03" y="66.01" width="4" height="4"/>
      <rect class="cls-1" x="42.03" y="66.01" width="4" height="4"/>
      <rect class="cls-1" x="46.03" y="66.01" width="4" height="4"/>
      <rect class="cls-1" x="50.03" y="66.01" width="4" height="4"/>
      <rect class="cls-1" x="54.03" y="66.01" width="4" height="4"/>
      <rect class="cls-1" x="58.03" y="66.01" width="4" height="4"/>
      <rect class="cls-1" x="62.03" y="66.01" width="4" height="4"/>
    </g>
    <g>
      <rect class="cls-10" x="22.03" y="22.01" width="4" height="4"/>
      <rect class="cls-10" x="22.03" y="18.01" width="4" height="4"/>
      <rect class="cls-9" x="26.03" y="18.01" width="4" height="4"/>
      <rect class="cls-8" x="26.03" y="14.01" width="4" height="4"/>
      <rect class="cls-9" x="30.03" y="14.01" width="4" height="4"/>
      <rect class="cls-8" x="30.03" y="10.01" width="4" height="4"/>
      <rect class="cls-10" x="34.03" y="10.01" width="4" height="4"/>
      <rect class="cls-10" x="38.03" y="10.01" width="4" height="4"/>
      <rect class="cls-10" x="42.03" y="10.01" width="4" height="4"/>
      <rect class="cls-10" x="46.03" y="10.01" width="4" height="4"/>
      <rect class="cls-9" x="46.03" y="14.01" width="4" height="4"/>
      <rect class="cls-10" x="50.03" y="14.01" width="4" height="4"/>
      <rect class="cls-9" x="50.03" y="18.01" width="4" height="4"/>
      <rect class="cls-9" x="54.03" y="18.01" width="4" height="4"/>
      <rect class="cls-9" x="54.03" y="22.01" width="4" height="4"/>
      <rect class="cls-9" x="54.03" y="26.01" width="4" height="4"/>
      <rect class="cls-10" x="22.03" y="26.01" width="4" height="4"/>
    </g>
    <g>
      <rect class="cls-11" x="22" y="14" width="4" height="4"/>
      <rect class="cls-11" x="18" y="22" width="4" height="4"/>
      <rect class="cls-11" x="18" y="18" width="4" height="4"/>
      <rect class="cls-11" x="18" y="26" width="4" height="4"/>
      <rect class="cls-11" x="10" y="38" width="4" height="4"/>
      <rect class="cls-11" x="10" y="42" width="4" height="4"/>
      <rect class="cls-11" x="10" y="46" width="4" height="4"/>
      <rect class="cls-11" x="10" y="50" width="4" height="4"/>
      <rect class="cls-11" x="10" y="54" width="4" height="4"/>
      <rect class="cls-11" x="10" y="58" width="4" height="4"/>
      <rect class="cls-11" x="10" y="62" width="4" height="4"/>
      <rect class="cls-11" x="26" y="10" width="4" height="4"/>
      <rect class="cls-11" x="30" y="6" width="4" height="4"/>
      <rect class="cls-11" x="34" y="6" width="4" height="4"/>
      <rect class="cls-11" x="38" y="6" width="4" height="4"/>
      <rect class="cls-11" x="42" y="6" width="4" height="4"/>
      <rect class="cls-11" x="46" y="6" width="4" height="4"/>
      <rect class="cls-11" x="50" y="10" width="4" height="4"/>
      <rect class="cls-11" x="54" y="14" width="4" height="4"/>
      <rect class="cls-11" x="58" y="18" width="4" height="4"/>
      <rect class="cls-11" x="58" y="22" width="4" height="4"/>
      <rect class="cls-11" x="58" y="26" width="4" height="4"/>
      <rect class="cls-11" x="30.03" y="18.01" width="4" height="4"/>
      <rect class="cls-11" x="42" y="14" width="4" height="4"/>
      <rect class="cls-11" x="26.03" y="22.01" width="4" height="4"/>
      <rect class="cls-11" x="26.03" y="26.01" width="4" height="4"/>
      <rect class="cls-11" x="26.03" y="30.01" width="4" height="4"/>
      <rect class="cls-11" x="50" y="22" width="4" height="4"/>
      <rect class="cls-11" x="46" y="18" width="4" height="4"/>
      <rect class="cls-11" x="50" y="26" width="4" height="4"/>
      <rect class="cls-11" x="66" y="38" width="4" height="4"/>
      <rect class="cls-11" x="10" y="34" width="4" height="4"/>
      <rect class="cls-11" x="66" y="34" width="4" height="4"/>
      <rect class="cls-11" x="66" y="42" width="4" height="4"/>
      <rect class="cls-11" x="66" y="46" width="4" height="4"/>
      <rect class="cls-11" x="66" y="50" width="4" height="4"/>
      <rect class="cls-11" x="66" y="54" width="4" height="4"/>
      <rect class="cls-11" x="66" y="58" width="4" height="4"/>
      <rect class="cls-11" x="66" y="62" width="4" height="4"/>
      <rect class="cls-11" x="50" y="30" width="4" height="4"/>
      <rect class="cls-11" x="26.03" y="30.01" width="4" height="4"/>
      <rect class="cls-11" x="30.03" y="30.01" width="4" height="4"/>
      <rect class="cls-11" x="18.03" y="30.01" width="4" height="4"/>
      <rect class="cls-11" x="14.03" y="30.01" width="4" height="4"/>
      <rect class="cls-11" x="22.03" y="30.01" width="4" height="4"/>
      <rect class="cls-11" x="34.03" y="14.01" width="4" height="4"/>
      <rect class="cls-11" x="38.03" y="14.01" width="4" height="4"/>
      <rect class="cls-11" x="34.03" y="30.01" width="4" height="4"/>
      <rect class="cls-11" x="38.03" y="30.01" width="4" height="4"/>
      <rect class="cls-11" x="42.03" y="30.01" width="4" height="4"/>
      <rect class="cls-11" x="46.03" y="30.01" width="4" height="4"/>
      <rect class="cls-11" x="50.03" y="30.01" width="4" height="4"/>
      <rect class="cls-11" x="58" y="30" width="4" height="4"/>
      <rect class="cls-11" x="54.03" y="30.01" width="4" height="4"/>
      <rect class="cls-11" x="58.03" y="30.01" width="4" height="4"/>
      <rect class="cls-11" x="22" y="70" width="4" height="4"/>
      <rect class="cls-11" x="18" y="70" width="4" height="4"/>
      <rect class="cls-11" x="14" y="70" width="4" height="4"/>
      <rect class="cls-11" x="10" y="66" width="4" height="4"/>
      <rect class="cls-11" x="26" y="70" width="4" height="4"/>
      <rect class="cls-11" x="30" y="70" width="4" height="4"/>
      <rect class="cls-11" x="34" y="70" width="4" height="4"/>
      <rect class="cls-11" x="38" y="70" width="4" height="4"/>
      <rect class="cls-11" x="42" y="70" width="4" height="4"/>
      <rect class="cls-11" x="46" y="70" width="4" height="4"/>
      <rect class="cls-11" x="50" y="70" width="4" height="4"/>
      <rect class="cls-11" x="54" y="70" width="4" height="4"/>
      <rect class="cls-11" x="58" y="70" width="4" height="4"/>
      <rect class="cls-11" x="62.03" y="30.01" width="4" height="4"/>
      <rect class="cls-11" x="62" y="70" width="4" height="4"/>
      <rect class="cls-11" x="66" y="66" width="4" height="4"/>
      <rect class="cls-11" x="40" y="46" width="4" height="4"/>
      <rect class="cls-11" x="40" y="50" width="4" height="4"/>
      <rect class="cls-11" x="38" y="54" width="4" height="4"/>
      <rect class="cls-11" x="36" y="46" width="4" height="4"/>
      <rect class="cls-11" x="36" y="50" width="4" height="4"/>
    </g>
  </g>
</svg>