<?xml version="1.0" encoding="UTF-8"?>
<svg id="Layer_1" data-name="Layer 1" xmlns="http://www.w3.org/2000/svg" viewBox="0 0 80 80">
  <defs>
    <style>
      .cls-1 {
        fill: #f7f0f2;
      }

      .cls-2 {
        fill: #f3abb9;
      }

      .cls-3 {
        fill: #f292a9;
      }

      .cls-4 {
        fill: #ea7d93;
      }

      .cls-5 {
        fill: #fff;
      }

      .cls-6 {
        fill: #f2c1cc;
      }

      .cls-7 {
        fill: #5b3a09;
      }
    </style>
  </defs>
  <rect class="cls-5" width="80" height="80"/>
  <g>
    <rect class="cls-2" x="10" y="24" width="4" height="4"/>
    <rect class="cls-2" x="10" y="28" width="4" height="4"/>
    <rect class="cls-2" x="10" y="32" width="4" height="4"/>
    <rect class="cls-2" x="10" y="36" width="4" height="4"/>
    <rect class="cls-6" x="14" y="24" width="4" height="4"/>
    <rect class="cls-6" x="14" y="28" width="4" height="4"/>
    <rect class="cls-2" x="14" y="32" width="4" height="4"/>
    <rect class="cls-2" x="14" y="36" width="4" height="4"/>
    <rect class="cls-1" x="18" y="24" width="4" height="4"/>
    <rect class="cls-2" x="14" y="20" width="4" height="4"/>
    <rect class="cls-6" x="18" y="20" width="4" height="4"/>
    <rect class="cls-2" x="18" y="16" width="4" height="4"/>
    <rect class="cls-1" x="18" y="28" width="4" height="4"/>
    <rect class="cls-6" x="18" y="32" width="4" height="4"/>
    <rect class="cls-2" x="18" y="36" width="4" height="4"/>
    <rect class="cls-2" x="14" y="40" width="4" height="4"/>
    <rect class="cls-2" x="18" y="40" width="4" height="4"/>
    <rect class="cls-2" x="18" y="44" width="4" height="4"/>
    <rect class="cls-1" x="22" y="24" width="4" height="4"/>
    <rect class="cls-6" x="22" y="20" width="4" height="4"/>
    <rect class="cls-2" x="22" y="16" width="4" height="4"/>
    <rect class="cls-1" x="22" y="28" width="4" height="4"/>
    <rect class="cls-6" x="22" y="32" width="4" height="4"/>
    <rect class="cls-2" x="22" y="36" width="4" height="4"/>
    <rect class="cls-2" x="22" y="40" width="4" height="4"/>
    <rect class="cls-2" x="22" y="44" width="4" height="4"/>
    <rect class="cls-6" x="26" y="24" width="4" height="4"/>
    <rect class="cls-2" x="26" y="20" width="4" height="4"/>
    <rect class="cls-3" x="26" y="16" width="4" height="4"/>
    <rect class="cls-6" x="26" y="28" width="4" height="4"/>
    <rect class="cls-2" x="26" y="32" width="4" height="4"/>
    <rect class="cls-2" x="26" y="36" width="4" height="4"/>
    <rect class="cls-2" x="26" y="40" width="4" height="4"/>
    <rect class="cls-2" x="26" y="44" width="4" height="4"/>
    <rect class="cls-2" x="30" y="24" width="4" height="4"/>
    <rect class="cls-3" x="30" y="20" width="4" height="4"/>
    <rect class="cls-2" x="30" y="28" width="4" height="4"/>
    <rect class="cls-2" x="30" y="32" width="4" height="4"/>
    <rect class="cls-2" x="30" y="36" width="4" height="4"/>
    <rect class="cls-2" x="30" y="40" width="4" height="4"/>
    <rect class="cls-2" x="30" y="44" width="4" height="4"/>
    <rect class="cls-2" x="22" y="48" width="4" height="4"/>
    <rect class="cls-2" x="26" y="48" width="4" height="4"/>
    <rect class="cls-2" x="30" y="48" width="4" height="4"/>
    <rect class="cls-2" x="26" y="52" width="4" height="4"/>
    <rect class="cls-2" x="30" y="52" width="4" height="4"/>
    <rect class="cls-3" x="30" y="56" width="4" height="4"/>
    <rect class="cls-3" x="34" y="24" width="4" height="4"/>
    <rect class="cls-2" x="34" y="28" width="4" height="4"/>
    <rect class="cls-2" x="34" y="32" width="4" height="4"/>
    <rect class="cls-2" x="34" y="36" width="4" height="4"/>
    <rect class="cls-2" x="34" y="40" width="4" height="4"/>
    <rect class="cls-2" x="34" y="44" width="4" height="4"/>
    <rect class="cls-2" x="34" y="48" width="4" height="4"/>
    <rect class="cls-2" x="34" y="52" width="4" height="4"/>
    <rect class="cls-3" x="34" y="56" width="4" height="4"/>
    <rect class="cls-4" x="34" y="60" width="4" height="4"/>
    <rect class="cls-2" x="38" y="28" width="4" height="4"/>
    <rect class="cls-2" x="38" y="32" width="4" height="4"/>
    <rect class="cls-2" x="38" y="36" width="4" height="4"/>
    <rect class="cls-2" x="38" y="40" width="4" height="4"/>
    <rect class="cls-2" x="38" y="44" width="4" height="4"/>
    <rect class="cls-2" x="38" y="48" width="4" height="4"/>
    <rect class="cls-2" x="38" y="52" width="4" height="4"/>
    <rect class="cls-3" x="38" y="56" width="4" height="4"/>
    <rect class="cls-4" x="38" y="60" width="4" height="4"/>
    <rect class="cls-2" x="42" y="28" width="4" height="4"/>
    <rect class="cls-2" x="42" y="24" width="4" height="4"/>
    <rect class="cls-2" x="42" y="32" width="4" height="4"/>
    <rect class="cls-2" x="42" y="36" width="4" height="4"/>
    <rect class="cls-2" x="42" y="40" width="4" height="4"/>
    <rect class="cls-2" x="42" y="44" width="4" height="4"/>
    <rect class="cls-2" x="42" y="48" width="4" height="4"/>
    <rect class="cls-2" x="42" y="52" width="4" height="4"/>
    <rect class="cls-3" x="42" y="56" width="4" height="4"/>
    <rect class="cls-2" x="46" y="28" width="4" height="4"/>
    <rect class="cls-2" x="46" y="24" width="4" height="4"/>
    <rect class="cls-2" x="46" y="20" width="4" height="4"/>
    <rect class="cls-2" x="46" y="32" width="4" height="4"/>
    <rect class="cls-2" x="46" y="36" width="4" height="4"/>
    <rect class="cls-2" x="46" y="40" width="4" height="4"/>
    <rect class="cls-2" x="46" y="44" width="4" height="4"/>
    <rect class="cls-2" x="46" y="48" width="4" height="4"/>
    <rect class="cls-3" x="46" y="52" width="4" height="4"/>
    <rect class="cls-2" x="50" y="28" width="4" height="4"/>
    <rect class="cls-2" x="50" y="24" width="4" height="4"/>
    <rect class="cls-2" x="50" y="20" width="4" height="4"/>
    <rect class="cls-2" x="50" y="32" width="4" height="4"/>
    <rect class="cls-2" x="50" y="36" width="4" height="4"/>
    <rect class="cls-2" x="50" y="40" width="4" height="4"/>
    <rect class="cls-2" x="50" y="44" width="4" height="4"/>
    <rect class="cls-3" x="50" y="48" width="4" height="4"/>
    <rect class="cls-2" x="54" y="28" width="4" height="4"/>
    <rect class="cls-2" x="54" y="24" width="4" height="4"/>
    <rect class="cls-2" x="54" y="20" width="4" height="4"/>
    <rect class="cls-3" x="50" y="16" width="4" height="4"/>
    <rect class="cls-3" x="54" y="16" width="4" height="4"/>
    <rect class="cls-2" x="54" y="32" width="4" height="4"/>
    <rect class="cls-2" x="54" y="36" width="4" height="4"/>
    <rect class="cls-2" x="54" y="40" width="4" height="4"/>
    <rect class="cls-3" x="54" y="44" width="4" height="4"/>
    <rect class="cls-2" x="58" y="28" width="4" height="4"/>
    <rect class="cls-2" x="58" y="24" width="4" height="4"/>
    <rect class="cls-3" x="58" y="20" width="4" height="4"/>
    <rect class="cls-4" x="58" y="16" width="4" height="4"/>
    <rect class="cls-2" x="58" y="32" width="4" height="4"/>
    <rect class="cls-2" x="58" y="36" width="4" height="4"/>
    <rect class="cls-3" x="58" y="40" width="4" height="4"/>
    <rect class="cls-3" x="62" y="28" width="4" height="4"/>
    <rect class="cls-3" x="62" y="24" width="4" height="4"/>
    <rect class="cls-4" x="62" y="20" width="4" height="4"/>
    <rect class="cls-3" x="62" y="32" width="4" height="4"/>
    <rect class="cls-3" x="62" y="36" width="4" height="4"/>
    <rect class="cls-4" x="66" y="28" width="4" height="4"/>
    <rect class="cls-4" x="66" y="24" width="4" height="4"/>
    <rect class="cls-4" x="66" y="32" width="4" height="4"/>
    <rect class="cls-4" x="66" y="36" width="4" height="4"/>
    <rect class="cls-4" x="62" y="40" width="4" height="4"/>
    <rect class="cls-4" x="58" y="44" width="4" height="4"/>
    <rect class="cls-4" x="54" y="48" width="4" height="4"/>
    <rect class="cls-4" x="50" y="52" width="4" height="4"/>
    <rect class="cls-4" x="46" y="56" width="4" height="4"/>
    <rect class="cls-4" x="42" y="60" width="4" height="4"/>
    <g>
      <g>
        <rect class="cls-7" x="38" y="24" width="4" height="4"/>
        <rect class="cls-7" x="42" y="20" width="4" height="4"/>
        <rect class="cls-7" x="46" y="16" width="4" height="4"/>
        <rect class="cls-7" x="34" y="20" width="4" height="4"/>
        <rect class="cls-7" x="30" y="16" width="4" height="4"/>
        <rect class="cls-7" x="14" y="16" width="4" height="4"/>
        <rect class="cls-7" x="10" y="20" width="4" height="4"/>
        <rect class="cls-7" x="6" y="24" width="4" height="4"/>
        <rect class="cls-7" x="26" y="12" width="4" height="4"/>
        <rect class="cls-7" x="22" y="12" width="4" height="4"/>
        <rect class="cls-7" x="18" y="12" width="4" height="4"/>
        <rect class="cls-7" x="58" y="12" width="4" height="4"/>
        <rect class="cls-7" x="62" y="16" width="4" height="4"/>
        <rect class="cls-7" x="66" y="20" width="4" height="4"/>
        <rect class="cls-7" x="70" y="24" width="4" height="4"/>
        <rect class="cls-7" x="6" y="28" width="4" height="4"/>
        <rect class="cls-7" x="70" y="28" width="4" height="4"/>
        <rect class="cls-7" x="6" y="32" width="4" height="4"/>
        <rect class="cls-7" x="70" y="32" width="4" height="4"/>
        <rect class="cls-7" x="6" y="36" width="4" height="4"/>
        <rect class="cls-7" x="70" y="36" width="4" height="4"/>
        <rect class="cls-7" x="66" y="40" width="4" height="4"/>
        <rect class="cls-7" x="62" y="44" width="4" height="4"/>
        <rect class="cls-7" x="58" y="48" width="4" height="4"/>
        <rect class="cls-7" x="54" y="52" width="4" height="4"/>
        <rect class="cls-7" x="50" y="56" width="4" height="4"/>
        <rect class="cls-7" x="46" y="60" width="4" height="4"/>
        <rect class="cls-7" x="42" y="64" width="4" height="4"/>
        <rect class="cls-7" x="10" y="40" width="4" height="4" transform="translate(24 84) rotate(-180)"/>
        <rect class="cls-7" x="14" y="44" width="4" height="4" transform="translate(32 92) rotate(-180)"/>
        <rect class="cls-7" x="18" y="48" width="4" height="4" transform="translate(40 100) rotate(-180)"/>
        <rect class="cls-7" x="22" y="52" width="4" height="4" transform="translate(48 108) rotate(-180)"/>
        <rect class="cls-7" x="26" y="56" width="4" height="4" transform="translate(56 116) rotate(-180)"/>
        <rect class="cls-7" x="30" y="60" width="4" height="4" transform="translate(64 124) rotate(-180)"/>
        <rect class="cls-7" x="34" y="64" width="4" height="4" transform="translate(72 132) rotate(-180)"/>
        <rect class="cls-7" x="38" y="64" width="4" height="4"/>
        <rect class="cls-7" x="54" y="12" width="4" height="4"/>
        <rect class="cls-7" x="50" y="12" width="4" height="4"/>
      </g>
      <g>
        <rect class="cls-5" x="26" y="8" width="4" height="4"/>
        <rect class="cls-5" x="30" y="12" width="4" height="4"/>
        <rect class="cls-5" x="34" y="16" width="4" height="4"/>
        <rect class="cls-5" x="38" y="20" width="4" height="4"/>
        <rect class="cls-5" x="22" y="8" width="4" height="4"/>
        <rect class="cls-5" x="18" y="8" width="4" height="4"/>
        <rect class="cls-5" x="14" y="12" width="4" height="4"/>
        <rect class="cls-5" x="10" y="16" width="4" height="4"/>
        <rect class="cls-5" x="6" y="20" width="4" height="4"/>
        <rect class="cls-5" x="2" y="24" width="4" height="4"/>
        <rect class="cls-5" x="2" y="28" width="4" height="4"/>
        <rect class="cls-5" x="2" y="32" width="4" height="4"/>
        <rect class="cls-5" x="2" y="36" width="4" height="4"/>
        <rect class="cls-5" x="6" y="40" width="4" height="4"/>
        <rect class="cls-5" x="10" y="44" width="4" height="4"/>
        <rect class="cls-5" x="14" y="48" width="4" height="4"/>
        <rect class="cls-5" x="18" y="52" width="4" height="4"/>
        <rect class="cls-5" x="22" y="56" width="4" height="4"/>
        <rect class="cls-5" x="26" y="60" width="4" height="4"/>
        <rect class="cls-5" x="30" y="64" width="4" height="4"/>
        <rect class="cls-5" x="34" y="68" width="4" height="4"/>
        <rect class="cls-5" x="38" y="68" width="4" height="4"/>
        <rect class="cls-5" x="42" y="68" width="4" height="4"/>
        <rect class="cls-5" x="46" y="64" width="4" height="4"/>
        <rect class="cls-5" x="50" y="60" width="4" height="4"/>
        <rect class="cls-5" x="54" y="56" width="4" height="4"/>
        <rect class="cls-5" x="58" y="52" width="4" height="4"/>
        <rect class="cls-5" x="62" y="48" width="4" height="4"/>
        <rect class="cls-5" x="66" y="44" width="4" height="4"/>
        <rect class="cls-5" x="70" y="40" width="4" height="4"/>
        <rect class="cls-5" x="74" y="36" width="4" height="4"/>
        <rect class="cls-5" x="74" y="32" width="4" height="4"/>
        <rect class="cls-5" x="74" y="28" width="4" height="4"/>
        <rect class="cls-5" x="74" y="24" width="4" height="4"/>
        <rect class="cls-5" x="70" y="20" width="4" height="4"/>
        <rect class="cls-5" x="66" y="16" width="4" height="4"/>
        <rect class="cls-5" x="62" y="12" width="4" height="4"/>
        <rect class="cls-5" x="58" y="8" width="4" height="4"/>
        <rect class="cls-5" x="54" y="8" width="4" height="4"/>
        <rect class="cls-5" x="50" y="8" width="4" height="4"/>
        <rect class="cls-5" x="46" y="12" width="4" height="4"/>
        <rect class="cls-5" x="42" y="16" width="4" height="4"/>
      </g>
    </g>
  </g>
</svg>